%TF.GenerationSoftware,KiCad,Pcbnew,8.0.3*%
%TF.CreationDate,2025-04-22T23:10:12+03:00*%
%TF.ProjectId,mihai555,6d696861-6935-4353-952e-6b696361645f,rev?*%
%TF.SameCoordinates,Original*%
%TF.FileFunction,Copper,L1,Top*%
%TF.FilePolarity,Positive*%
%FSLAX46Y46*%
G04 Gerber Fmt 4.6, Leading zero omitted, Abs format (unit mm)*
G04 Created by KiCad (PCBNEW 8.0.3) date 2025-04-22 23:10:12*
%MOMM*%
%LPD*%
G01*
G04 APERTURE LIST*
G04 Aperture macros list*
%AMRoundRect*
0 Rectangle with rounded corners*
0 $1 Rounding radius*
0 $2 $3 $4 $5 $6 $7 $8 $9 X,Y pos of 4 corners*
0 Add a 4 corners polygon primitive as box body*
4,1,4,$2,$3,$4,$5,$6,$7,$8,$9,$2,$3,0*
0 Add four circle primitives for the rounded corners*
1,1,$1+$1,$2,$3*
1,1,$1+$1,$4,$5*
1,1,$1+$1,$6,$7*
1,1,$1+$1,$8,$9*
0 Add four rect primitives between the rounded corners*
20,1,$1+$1,$2,$3,$4,$5,0*
20,1,$1+$1,$4,$5,$6,$7,0*
20,1,$1+$1,$6,$7,$8,$9,0*
20,1,$1+$1,$8,$9,$2,$3,0*%
G04 Aperture macros list end*
%TA.AperFunction,SMDPad,CuDef*%
%ADD10RoundRect,0.200000X0.275000X-0.200000X0.275000X0.200000X-0.275000X0.200000X-0.275000X-0.200000X0*%
%TD*%
%TA.AperFunction,SMDPad,CuDef*%
%ADD11C,1.000000*%
%TD*%
%TA.AperFunction,SMDPad,CuDef*%
%ADD12RoundRect,0.200000X-0.275000X0.200000X-0.275000X-0.200000X0.275000X-0.200000X0.275000X0.200000X0*%
%TD*%
%TA.AperFunction,SMDPad,CuDef*%
%ADD13RoundRect,0.225000X0.250000X-0.225000X0.250000X0.225000X-0.250000X0.225000X-0.250000X-0.225000X0*%
%TD*%
%TA.AperFunction,SMDPad,CuDef*%
%ADD14R,5.000000X5.000000*%
%TD*%
%TA.AperFunction,SMDPad,CuDef*%
%ADD15RoundRect,0.150000X-0.150000X0.825000X-0.150000X-0.825000X0.150000X-0.825000X0.150000X0.825000X0*%
%TD*%
%TA.AperFunction,SMDPad,CuDef*%
%ADD16RoundRect,0.200000X-0.200000X-0.275000X0.200000X-0.275000X0.200000X0.275000X-0.200000X0.275000X0*%
%TD*%
%TA.AperFunction,SMDPad,CuDef*%
%ADD17RoundRect,0.218750X-0.256250X0.218750X-0.256250X-0.218750X0.256250X-0.218750X0.256250X0.218750X0*%
%TD*%
%TA.AperFunction,SMDPad,CuDef*%
%ADD18RoundRect,0.225000X-0.250000X0.225000X-0.250000X-0.225000X0.250000X-0.225000X0.250000X0.225000X0*%
%TD*%
%TA.AperFunction,SMDPad,CuDef*%
%ADD19RoundRect,0.218750X0.256250X-0.218750X0.256250X0.218750X-0.256250X0.218750X-0.256250X-0.218750X0*%
%TD*%
%TA.AperFunction,ViaPad*%
%ADD20C,1.000000*%
%TD*%
%TA.AperFunction,Conductor*%
%ADD21C,0.500000*%
%TD*%
G04 APERTURE END LIST*
D10*
%TO.P,R9,1*%
%TO.N,Net-(D2-K)*%
X54000000Y-78825000D03*
%TO.P,R9,2*%
%TO.N,/OUT*%
X54000000Y-77175000D03*
%TD*%
%TO.P,R2,1*%
%TO.N,+5V*%
X68000000Y-91875000D03*
%TO.P,R2,2*%
%TO.N,Net-(R1-Pad2)*%
X68000000Y-90225000D03*
%TD*%
D11*
%TO.P,REF\u002A\u002A,1*%
%TO.N,N/C*%
X73000000Y-74000000D03*
%TD*%
D10*
%TO.P,R5,1*%
%TO.N,Net-(R1-Pad2)*%
X71000000Y-83825000D03*
%TO.P,R5,2*%
%TO.N,/DISC*%
X71000000Y-82175000D03*
%TD*%
D12*
%TO.P,RL1,1*%
%TO.N,+5V*%
X57000000Y-77175000D03*
%TO.P,RL1,2*%
%TO.N,/OUT*%
X57000000Y-78825000D03*
%TD*%
D13*
%TO.P,C1,1*%
%TO.N,/TRIG*%
X60000000Y-79000000D03*
%TO.P,C1,2*%
%TO.N,GND*%
X60000000Y-77450000D03*
%TD*%
D10*
%TO.P,R6,1*%
%TO.N,Net-(R1-Pad2)*%
X65000000Y-83825000D03*
%TO.P,R6,2*%
%TO.N,/DISC*%
X65000000Y-82175000D03*
%TD*%
%TO.P,R7,1*%
%TO.N,/DISC*%
X65000000Y-78825000D03*
%TO.P,R7,2*%
%TO.N,/TRIG*%
X65000000Y-77175000D03*
%TD*%
D12*
%TO.P,R8,1*%
%TO.N,/OUT*%
X51000000Y-77175000D03*
%TO.P,R8,2*%
%TO.N,Net-(D1-A)*%
X51000000Y-78825000D03*
%TD*%
D10*
%TO.P,R1,1*%
%TO.N,+5V*%
X71000000Y-91875000D03*
%TO.P,R1,2*%
%TO.N,Net-(R1-Pad2)*%
X71000000Y-90225000D03*
%TD*%
D14*
%TO.P,REF\u002A\u002A,1*%
%TO.N,+5V*%
X50000000Y-95000000D03*
%TD*%
D15*
%TO.P,U1,1,GND*%
%TO.N,GND*%
X60905000Y-82525000D03*
%TO.P,U1,2,TR*%
%TO.N,/TRIG*%
X59635000Y-82525000D03*
%TO.P,U1,3,Q*%
%TO.N,/OUT*%
X58365000Y-82525000D03*
%TO.P,U1,4,R*%
%TO.N,+5V*%
X57095000Y-82525000D03*
%TO.P,U1,5,CV*%
%TO.N,Net-(U1-CV)*%
X57095000Y-87475000D03*
%TO.P,U1,6,THR*%
%TO.N,/TRIG*%
X58365000Y-87475000D03*
%TO.P,U1,7,DIS*%
%TO.N,/DISC*%
X59635000Y-87475000D03*
%TO.P,U1,8,VCC*%
%TO.N,+5V*%
X60905000Y-87475000D03*
%TD*%
D16*
%TO.P,R4,1*%
%TO.N,Net-(R3-Pad2)*%
X65175000Y-86825000D03*
%TO.P,R4,2*%
%TO.N,Net-(R1-Pad2)*%
X66825000Y-86825000D03*
%TD*%
D11*
%TO.P,REF\u002A\u002A,1*%
%TO.N,N/C*%
X47000000Y-74000000D03*
%TD*%
D14*
%TO.P,REF\u002A\u002A,1*%
%TO.N,GND*%
X70000000Y-78000000D03*
%TD*%
D17*
%TO.P,D2,1,K*%
%TO.N,Net-(D2-K)*%
X54000000Y-82212500D03*
%TO.P,D2,2,A*%
%TO.N,+5V*%
X54000000Y-83787500D03*
%TD*%
D18*
%TO.P,CC2,1*%
%TO.N,Net-(U1-CV)*%
X57000000Y-90225000D03*
%TO.P,CC2,2*%
%TO.N,GND*%
X57000000Y-91775000D03*
%TD*%
D10*
%TO.P,R3,1*%
%TO.N,+5V*%
X65000000Y-91875000D03*
%TO.P,R3,2*%
%TO.N,Net-(R3-Pad2)*%
X65000000Y-90225000D03*
%TD*%
D18*
%TO.P,CC1,1*%
%TO.N,+5V*%
X61000000Y-90225000D03*
%TO.P,CC1,2*%
%TO.N,GND*%
X61000000Y-91775000D03*
%TD*%
D11*
%TO.P,REF\u002A\u002A,1*%
%TO.N,N/C*%
X73000000Y-97000000D03*
%TD*%
D19*
%TO.P,D1,1,K*%
%TO.N,GND*%
X51000000Y-83787500D03*
%TO.P,D1,2,A*%
%TO.N,Net-(D1-A)*%
X51000000Y-82212500D03*
%TD*%
D20*
%TO.N,+5V*%
X58400000Y-77200000D03*
X57000000Y-80300000D03*
%TO.N,GND*%
X55500000Y-85500000D03*
X63000000Y-87500000D03*
X61500000Y-77400000D03*
X55500000Y-81000000D03*
X66500000Y-89000000D03*
X59000000Y-91800000D03*
X55300000Y-91800000D03*
X62600000Y-80300000D03*
X68700000Y-84000000D03*
%TD*%
D21*
%TO.N,Net-(R1-Pad2)*%
X68000000Y-88800000D02*
X66825000Y-87625000D01*
X68000000Y-90225000D02*
X68000000Y-88800000D01*
X66825000Y-87625000D02*
X66825000Y-86825000D01*
X71000000Y-85700000D02*
X71000000Y-83825000D01*
X69875000Y-86825000D02*
X71000000Y-85700000D01*
X66825000Y-86825000D02*
X69875000Y-86825000D01*
%TO.N,+5V*%
X54000000Y-86300000D02*
X54000000Y-83787500D01*
X50540000Y-89760000D02*
X54000000Y-86300000D01*
X50540000Y-95540000D02*
X50540000Y-89760000D01*
X64260000Y-95540000D02*
X50540000Y-95540000D01*
X60905000Y-87475000D02*
X60905000Y-90130000D01*
X61000000Y-90225000D02*
X62125000Y-90225000D01*
X62125000Y-90225000D02*
X63775000Y-91875000D01*
X63775000Y-91875000D02*
X65000000Y-91875000D01*
X57095000Y-80395000D02*
X57095000Y-82525000D01*
X57000000Y-77175000D02*
X58375000Y-77175000D01*
X50540000Y-95540000D02*
X50000000Y-95000000D01*
X57000000Y-80300000D02*
X57095000Y-80395000D01*
X58375000Y-77175000D02*
X58400000Y-77200000D01*
X60905000Y-90130000D02*
X61000000Y-90225000D01*
X65000000Y-91875000D02*
X71000000Y-91875000D01*
X54000000Y-83787500D02*
X55832500Y-83787500D01*
X55832500Y-83787500D02*
X57095000Y-82525000D01*
X65000000Y-91875000D02*
X65000000Y-94800000D01*
X65000000Y-94800000D02*
X64260000Y-95540000D01*
%TO.N,Net-(R1-Pad2)*%
X66125000Y-83825000D02*
X65000000Y-83825000D01*
X66825000Y-84525000D02*
X66125000Y-83825000D01*
X68000000Y-90225000D02*
X71000000Y-90225000D01*
X66825000Y-86825000D02*
X66825000Y-84525000D01*
%TO.N,Net-(R3-Pad2)*%
X65000000Y-87000000D02*
X65175000Y-86825000D01*
X65000000Y-90225000D02*
X65000000Y-87000000D01*
%TO.N,/DISC*%
X63625000Y-82175000D02*
X65000000Y-82175000D01*
X63200000Y-83800000D02*
X63200000Y-82600000D01*
X60700000Y-85000000D02*
X62000000Y-85000000D01*
X59635000Y-87475000D02*
X59635000Y-86065000D01*
X63200000Y-82600000D02*
X63625000Y-82175000D01*
X59635000Y-86065000D02*
X60700000Y-85000000D01*
X65000000Y-78825000D02*
X65000000Y-82175000D01*
X65000000Y-82175000D02*
X71000000Y-82175000D01*
X62000000Y-85000000D02*
X63200000Y-83800000D01*
%TO.N,/TRIG*%
X60000000Y-79000000D02*
X61700000Y-79000000D01*
X61700000Y-79000000D02*
X63525000Y-77175000D01*
X59635000Y-84365000D02*
X59635000Y-82525000D01*
X60000000Y-80400000D02*
X59700000Y-80700000D01*
X59700000Y-80700000D02*
X59700000Y-82460000D01*
X63525000Y-77175000D02*
X65000000Y-77175000D01*
X58365000Y-85635000D02*
X59635000Y-84365000D01*
X60000000Y-79000000D02*
X60000000Y-80400000D01*
X59700000Y-82460000D02*
X59635000Y-82525000D01*
X58365000Y-87475000D02*
X58365000Y-85635000D01*
%TO.N,Net-(D2-K)*%
X54000000Y-82212500D02*
X54000000Y-78825000D01*
%TO.N,/OUT*%
X58365000Y-82525000D02*
X58365000Y-80190000D01*
X56325000Y-78825000D02*
X57000000Y-78825000D01*
X51000000Y-77175000D02*
X54000000Y-77175000D01*
X54675000Y-77175000D02*
X56325000Y-78825000D01*
X54000000Y-77175000D02*
X54675000Y-77175000D01*
X58365000Y-80190000D02*
X57000000Y-78825000D01*
%TO.N,Net-(D1-A)*%
X51000000Y-82212500D02*
X51000000Y-78825000D01*
%TO.N,Net-(U1-CV)*%
X57000000Y-87570000D02*
X57095000Y-87475000D01*
X57000000Y-90225000D02*
X57000000Y-87570000D01*
%TD*%
%TA.AperFunction,Conductor*%
%TO.N,GND*%
G36*
X57817083Y-83572036D02*
G01*
X57829763Y-83586670D01*
X57892850Y-83672150D01*
X58002118Y-83752793D01*
X58044845Y-83767744D01*
X58130299Y-83797646D01*
X58160730Y-83800500D01*
X58160734Y-83800500D01*
X58569270Y-83800500D01*
X58599699Y-83797646D01*
X58599701Y-83797646D01*
X58663790Y-83775219D01*
X58727882Y-83752793D01*
X58837150Y-83672150D01*
X58860731Y-83640198D01*
X58916377Y-83597949D01*
X58986033Y-83592490D01*
X59047582Y-83625557D01*
X59081484Y-83686651D01*
X59084500Y-83713833D01*
X59084500Y-84085613D01*
X59064815Y-84152652D01*
X59048181Y-84173294D01*
X57924491Y-85296983D01*
X57924487Y-85296988D01*
X57900803Y-85338013D01*
X57900802Y-85338015D01*
X57852017Y-85422512D01*
X57852016Y-85422513D01*
X57847194Y-85440510D01*
X57814500Y-85562525D01*
X57814500Y-85562527D01*
X57814500Y-86286166D01*
X57794815Y-86353205D01*
X57742011Y-86398960D01*
X57672853Y-86408904D01*
X57609297Y-86379879D01*
X57590730Y-86359800D01*
X57567150Y-86327850D01*
X57457882Y-86247207D01*
X57457880Y-86247206D01*
X57329700Y-86202353D01*
X57299270Y-86199500D01*
X57299266Y-86199500D01*
X56890734Y-86199500D01*
X56890730Y-86199500D01*
X56860300Y-86202353D01*
X56860298Y-86202353D01*
X56732119Y-86247206D01*
X56732117Y-86247207D01*
X56622850Y-86327850D01*
X56542207Y-86437117D01*
X56542206Y-86437119D01*
X56497353Y-86565298D01*
X56497353Y-86565300D01*
X56494500Y-86595730D01*
X56494500Y-87314782D01*
X56487641Y-87349268D01*
X56489120Y-87349665D01*
X56487017Y-87357513D01*
X56487016Y-87357515D01*
X56449500Y-87497525D01*
X56449500Y-87497527D01*
X56449500Y-89506778D01*
X56429815Y-89573817D01*
X56400427Y-89605580D01*
X56374924Y-89624919D01*
X56374918Y-89624926D01*
X56287636Y-89740023D01*
X56234640Y-89874411D01*
X56229465Y-89917513D01*
X56224500Y-89958856D01*
X56224500Y-90491144D01*
X56229464Y-90532483D01*
X56234640Y-90575588D01*
X56287636Y-90709976D01*
X56346390Y-90787454D01*
X56371213Y-90852765D01*
X56356785Y-90921129D01*
X56312688Y-90967914D01*
X56297273Y-90977422D01*
X56297267Y-90977427D01*
X56177427Y-91097267D01*
X56177424Y-91097271D01*
X56088457Y-91241507D01*
X56088452Y-91241518D01*
X56035144Y-91402393D01*
X56025000Y-91501677D01*
X56025000Y-91525000D01*
X57974999Y-91525000D01*
X57974999Y-91501692D01*
X57974998Y-91501677D01*
X57964855Y-91402392D01*
X57911547Y-91241518D01*
X57911542Y-91241507D01*
X57822575Y-91097271D01*
X57822572Y-91097267D01*
X57702731Y-90977426D01*
X57687314Y-90967917D01*
X57640590Y-90915969D01*
X57629369Y-90847006D01*
X57653606Y-90787457D01*
X57712364Y-90709975D01*
X57765359Y-90575590D01*
X57775500Y-90491144D01*
X57775500Y-89958856D01*
X57765359Y-89874410D01*
X57712364Y-89740025D01*
X57712363Y-89740024D01*
X57712363Y-89740023D01*
X57625081Y-89624926D01*
X57625075Y-89624919D01*
X57599573Y-89605580D01*
X57558051Y-89549387D01*
X57550500Y-89506778D01*
X57550500Y-88685513D01*
X57570185Y-88618474D01*
X57574721Y-88611891D01*
X57630231Y-88536677D01*
X57685877Y-88494428D01*
X57755533Y-88488969D01*
X57817082Y-88522036D01*
X57829763Y-88536670D01*
X57892850Y-88622150D01*
X58002118Y-88702793D01*
X58044845Y-88717744D01*
X58130299Y-88747646D01*
X58160730Y-88750500D01*
X58160734Y-88750500D01*
X58569270Y-88750500D01*
X58599699Y-88747646D01*
X58599701Y-88747646D01*
X58663790Y-88725219D01*
X58727882Y-88702793D01*
X58837150Y-88622150D01*
X58900231Y-88536677D01*
X58955877Y-88494428D01*
X59025533Y-88488969D01*
X59087083Y-88522036D01*
X59099763Y-88536670D01*
X59162850Y-88622150D01*
X59272118Y-88702793D01*
X59314845Y-88717744D01*
X59400299Y-88747646D01*
X59430730Y-88750500D01*
X59430734Y-88750500D01*
X59839270Y-88750500D01*
X59869699Y-88747646D01*
X59869701Y-88747646D01*
X59933790Y-88725219D01*
X59997882Y-88702793D01*
X60107150Y-88622150D01*
X60130731Y-88590198D01*
X60186377Y-88547949D01*
X60256033Y-88542490D01*
X60317582Y-88575557D01*
X60351484Y-88636651D01*
X60354500Y-88663833D01*
X60354500Y-89610152D01*
X60334815Y-89677191D01*
X60329304Y-89685077D01*
X60287636Y-89740023D01*
X60234640Y-89874411D01*
X60229465Y-89917513D01*
X60224500Y-89958856D01*
X60224500Y-90491144D01*
X60229464Y-90532483D01*
X60234640Y-90575588D01*
X60287636Y-90709976D01*
X60346390Y-90787454D01*
X60371213Y-90852765D01*
X60356785Y-90921129D01*
X60312688Y-90967914D01*
X60297273Y-90977422D01*
X60297267Y-90977427D01*
X60177427Y-91097267D01*
X60177424Y-91097271D01*
X60088457Y-91241507D01*
X60088452Y-91241518D01*
X60035144Y-91402393D01*
X60025000Y-91501677D01*
X60025000Y-91525000D01*
X61974999Y-91525000D01*
X61974999Y-91501692D01*
X61974998Y-91501677D01*
X61964855Y-91402392D01*
X61911547Y-91241518D01*
X61911542Y-91241507D01*
X61822575Y-91097271D01*
X61822572Y-91097267D01*
X61712486Y-90987181D01*
X61679001Y-90925858D01*
X61683985Y-90856166D01*
X61725857Y-90800233D01*
X61791321Y-90775816D01*
X61800167Y-90775500D01*
X61845613Y-90775500D01*
X61912652Y-90795185D01*
X61933294Y-90811819D01*
X63436985Y-92315510D01*
X63562515Y-92387984D01*
X63702525Y-92425500D01*
X64316770Y-92425500D01*
X64383809Y-92445185D01*
X64391067Y-92450222D01*
X64399804Y-92456763D01*
X64441678Y-92512690D01*
X64449500Y-92556034D01*
X64449500Y-94520613D01*
X64429815Y-94587652D01*
X64413181Y-94608294D01*
X64068294Y-94953181D01*
X64006971Y-94986666D01*
X63980613Y-94989500D01*
X52924499Y-94989500D01*
X52857460Y-94969815D01*
X52811705Y-94917011D01*
X52800499Y-94865500D01*
X52800499Y-92455143D01*
X52800499Y-92455136D01*
X52800220Y-92452728D01*
X52797586Y-92430012D01*
X52797585Y-92430010D01*
X52797585Y-92430009D01*
X52752206Y-92327235D01*
X52672765Y-92247794D01*
X52672763Y-92247793D01*
X52569992Y-92202415D01*
X52544868Y-92199500D01*
X52544865Y-92199500D01*
X51214500Y-92199500D01*
X51147461Y-92179815D01*
X51101706Y-92127011D01*
X51090500Y-92075500D01*
X51090500Y-92048322D01*
X56025001Y-92048322D01*
X56035144Y-92147607D01*
X56088452Y-92308481D01*
X56088457Y-92308492D01*
X56177424Y-92452728D01*
X56177427Y-92452732D01*
X56297267Y-92572572D01*
X56297271Y-92572575D01*
X56441507Y-92661542D01*
X56441518Y-92661547D01*
X56602393Y-92714855D01*
X56701683Y-92724999D01*
X57250000Y-92724999D01*
X57298308Y-92724999D01*
X57298322Y-92724998D01*
X57397607Y-92714855D01*
X57558481Y-92661547D01*
X57558492Y-92661542D01*
X57702728Y-92572575D01*
X57702732Y-92572572D01*
X57822572Y-92452732D01*
X57822575Y-92452728D01*
X57911542Y-92308492D01*
X57911547Y-92308481D01*
X57964855Y-92147606D01*
X57974999Y-92048322D01*
X60025001Y-92048322D01*
X60035144Y-92147607D01*
X60088452Y-92308481D01*
X60088457Y-92308492D01*
X60177424Y-92452728D01*
X60177427Y-92452732D01*
X60297267Y-92572572D01*
X60297271Y-92572575D01*
X60441507Y-92661542D01*
X60441518Y-92661547D01*
X60602393Y-92714855D01*
X60701683Y-92724999D01*
X61250000Y-92724999D01*
X61298308Y-92724999D01*
X61298322Y-92724998D01*
X61397607Y-92714855D01*
X61558481Y-92661547D01*
X61558492Y-92661542D01*
X61702728Y-92572575D01*
X61702732Y-92572572D01*
X61822572Y-92452732D01*
X61822575Y-92452728D01*
X61911542Y-92308492D01*
X61911547Y-92308481D01*
X61964855Y-92147606D01*
X61974999Y-92048322D01*
X61975000Y-92048309D01*
X61975000Y-92025000D01*
X61250000Y-92025000D01*
X61250000Y-92724999D01*
X60701683Y-92724999D01*
X60749999Y-92724998D01*
X60750000Y-92724998D01*
X60750000Y-92025000D01*
X60025001Y-92025000D01*
X60025001Y-92048322D01*
X57974999Y-92048322D01*
X57975000Y-92048309D01*
X57975000Y-92025000D01*
X57250000Y-92025000D01*
X57250000Y-92724999D01*
X56701683Y-92724999D01*
X56749999Y-92724998D01*
X56750000Y-92724998D01*
X56750000Y-92025000D01*
X56025001Y-92025000D01*
X56025001Y-92048322D01*
X51090500Y-92048322D01*
X51090500Y-90039387D01*
X51110185Y-89972348D01*
X51126819Y-89951706D01*
X52724259Y-88354266D01*
X54440510Y-86638015D01*
X54512984Y-86512485D01*
X54519808Y-86487016D01*
X54550500Y-86372475D01*
X54550500Y-84496366D01*
X54570185Y-84429327D01*
X54599572Y-84397564D01*
X54626867Y-84376867D01*
X54626870Y-84376862D01*
X54629415Y-84374319D01*
X54632313Y-84372736D01*
X54633626Y-84371741D01*
X54633775Y-84371938D01*
X54690738Y-84340834D01*
X54717096Y-84338000D01*
X55904972Y-84338000D01*
X55904974Y-84338000D01*
X55904975Y-84338000D01*
X56044985Y-84300484D01*
X56102408Y-84267331D01*
X56170515Y-84228010D01*
X56613032Y-83785491D01*
X56674353Y-83752008D01*
X56741662Y-83756132D01*
X56860301Y-83797646D01*
X56860300Y-83797646D01*
X56890730Y-83800500D01*
X56890734Y-83800500D01*
X57299270Y-83800500D01*
X57329699Y-83797646D01*
X57329701Y-83797646D01*
X57393790Y-83775219D01*
X57457882Y-83752793D01*
X57567150Y-83672150D01*
X57630231Y-83586677D01*
X57685877Y-83544428D01*
X57755533Y-83538969D01*
X57817083Y-83572036D01*
G37*
%TD.AperFunction*%
%TA.AperFunction,Conductor*%
G36*
X74442539Y-72520185D02*
G01*
X74488294Y-72572989D01*
X74499500Y-72624500D01*
X74499500Y-98375500D01*
X74479815Y-98442539D01*
X74427011Y-98488294D01*
X74375500Y-98499500D01*
X45624500Y-98499500D01*
X45557461Y-98479815D01*
X45511706Y-98427011D01*
X45500500Y-98375500D01*
X45500500Y-92455131D01*
X47199500Y-92455131D01*
X47199500Y-97544856D01*
X47199502Y-97544882D01*
X47202413Y-97569987D01*
X47202415Y-97569991D01*
X47247793Y-97672764D01*
X47247794Y-97672765D01*
X47327235Y-97752206D01*
X47430009Y-97797585D01*
X47455135Y-97800500D01*
X52544864Y-97800499D01*
X52544879Y-97800497D01*
X52544882Y-97800497D01*
X52569987Y-97797586D01*
X52569988Y-97797585D01*
X52569991Y-97797585D01*
X52672765Y-97752206D01*
X52752206Y-97672765D01*
X52797585Y-97569991D01*
X52800500Y-97544865D01*
X52800500Y-96999996D01*
X72194435Y-96999996D01*
X72194435Y-97000003D01*
X72214630Y-97179249D01*
X72214631Y-97179254D01*
X72274211Y-97349523D01*
X72370184Y-97502262D01*
X72497738Y-97629816D01*
X72650478Y-97725789D01*
X72820745Y-97785368D01*
X72820750Y-97785369D01*
X72999996Y-97805565D01*
X73000000Y-97805565D01*
X73000004Y-97805565D01*
X73179249Y-97785369D01*
X73179252Y-97785368D01*
X73179255Y-97785368D01*
X73349522Y-97725789D01*
X73502262Y-97629816D01*
X73629816Y-97502262D01*
X73725789Y-97349522D01*
X73785368Y-97179255D01*
X73805565Y-97000000D01*
X73785368Y-96820745D01*
X73725789Y-96650478D01*
X73629816Y-96497738D01*
X73502262Y-96370184D01*
X73349523Y-96274211D01*
X73179254Y-96214631D01*
X73179249Y-96214630D01*
X73000004Y-96194435D01*
X72999996Y-96194435D01*
X72820750Y-96214630D01*
X72820745Y-96214631D01*
X72650476Y-96274211D01*
X72497737Y-96370184D01*
X72370184Y-96497737D01*
X72274211Y-96650476D01*
X72214631Y-96820745D01*
X72214630Y-96820750D01*
X72194435Y-96999996D01*
X52800500Y-96999996D01*
X52800500Y-96214500D01*
X52820185Y-96147461D01*
X52872989Y-96101706D01*
X52924500Y-96090500D01*
X64332472Y-96090500D01*
X64332474Y-96090500D01*
X64332475Y-96090500D01*
X64472485Y-96052984D01*
X64598015Y-95980510D01*
X65440510Y-95138015D01*
X65512984Y-95012485D01*
X65550500Y-94872474D01*
X65550500Y-94727526D01*
X65550500Y-92556034D01*
X65570185Y-92488995D01*
X65600193Y-92456764D01*
X65608928Y-92450225D01*
X65674395Y-92425815D01*
X65683230Y-92425500D01*
X67316769Y-92425500D01*
X67383808Y-92445185D01*
X67391080Y-92450233D01*
X67442860Y-92488995D01*
X67474512Y-92512690D01*
X67482668Y-92518795D01*
X67482671Y-92518797D01*
X67527618Y-92535561D01*
X67617517Y-92569091D01*
X67677127Y-92575500D01*
X68322872Y-92575499D01*
X68382483Y-92569091D01*
X68517331Y-92518796D01*
X68575819Y-92475011D01*
X68608920Y-92450233D01*
X68674385Y-92425816D01*
X68683231Y-92425500D01*
X70316769Y-92425500D01*
X70383808Y-92445185D01*
X70391080Y-92450233D01*
X70442860Y-92488995D01*
X70474512Y-92512690D01*
X70482668Y-92518795D01*
X70482671Y-92518797D01*
X70527618Y-92535561D01*
X70617517Y-92569091D01*
X70677127Y-92575500D01*
X71322872Y-92575499D01*
X71382483Y-92569091D01*
X71517331Y-92518796D01*
X71632546Y-92432546D01*
X71718796Y-92317331D01*
X71769091Y-92182483D01*
X71775500Y-92122873D01*
X71775499Y-91627128D01*
X71769091Y-91567517D01*
X71753233Y-91525000D01*
X71718797Y-91432671D01*
X71718793Y-91432664D01*
X71632547Y-91317455D01*
X71632544Y-91317452D01*
X71517335Y-91231206D01*
X71517328Y-91231202D01*
X71382486Y-91180910D01*
X71382485Y-91180909D01*
X71382483Y-91180909D01*
X71322873Y-91174500D01*
X71322863Y-91174500D01*
X70677129Y-91174500D01*
X70677123Y-91174501D01*
X70617516Y-91180908D01*
X70482671Y-91231202D01*
X70482668Y-91231204D01*
X70391080Y-91299767D01*
X70325615Y-91324184D01*
X70316769Y-91324500D01*
X68683231Y-91324500D01*
X68616192Y-91304815D01*
X68608920Y-91299767D01*
X68517331Y-91231204D01*
X68517328Y-91231202D01*
X68382486Y-91180910D01*
X68382485Y-91180909D01*
X68382483Y-91180909D01*
X68322873Y-91174500D01*
X68322863Y-91174500D01*
X67677129Y-91174500D01*
X67677123Y-91174501D01*
X67617516Y-91180908D01*
X67482671Y-91231202D01*
X67482668Y-91231204D01*
X67391080Y-91299767D01*
X67325615Y-91324184D01*
X67316769Y-91324500D01*
X65683231Y-91324500D01*
X65616192Y-91304815D01*
X65608920Y-91299767D01*
X65517331Y-91231204D01*
X65517328Y-91231202D01*
X65382486Y-91180910D01*
X65382485Y-91180909D01*
X65382483Y-91180909D01*
X65322873Y-91174500D01*
X65322863Y-91174500D01*
X64677129Y-91174500D01*
X64677123Y-91174501D01*
X64617516Y-91180908D01*
X64482671Y-91231202D01*
X64482668Y-91231204D01*
X64391080Y-91299767D01*
X64325615Y-91324184D01*
X64316769Y-91324500D01*
X64054387Y-91324500D01*
X63987348Y-91304815D01*
X63966706Y-91288181D01*
X62655652Y-89977127D01*
X64224500Y-89977127D01*
X64224500Y-89977134D01*
X64224500Y-89977135D01*
X64224500Y-90472870D01*
X64224501Y-90472876D01*
X64230908Y-90532483D01*
X64281202Y-90667328D01*
X64281206Y-90667335D01*
X64367452Y-90782544D01*
X64367455Y-90782547D01*
X64482664Y-90868793D01*
X64482671Y-90868797D01*
X64527618Y-90885561D01*
X64617517Y-90919091D01*
X64677127Y-90925500D01*
X65322872Y-90925499D01*
X65382483Y-90919091D01*
X65517331Y-90868796D01*
X65632546Y-90782546D01*
X65718796Y-90667331D01*
X65769091Y-90532483D01*
X65775500Y-90472873D01*
X65775499Y-89977128D01*
X65769091Y-89917517D01*
X65718796Y-89782669D01*
X65718795Y-89782668D01*
X65718793Y-89782664D01*
X65647571Y-89687525D01*
X65632546Y-89667454D01*
X65632544Y-89667452D01*
X65632542Y-89667450D01*
X65600188Y-89643230D01*
X65558318Y-89587296D01*
X65550500Y-89543964D01*
X65550500Y-87653861D01*
X65570185Y-87586822D01*
X65610418Y-87549362D01*
X65610231Y-87549112D01*
X65612565Y-87547364D01*
X65615076Y-87545027D01*
X65617323Y-87543798D01*
X65617331Y-87543796D01*
X65732546Y-87457546D01*
X65818796Y-87342331D01*
X65869091Y-87207483D01*
X65875500Y-87147873D01*
X65875499Y-86502128D01*
X65869091Y-86442517D01*
X65867077Y-86437118D01*
X65818797Y-86307671D01*
X65818793Y-86307664D01*
X65732547Y-86192455D01*
X65732544Y-86192452D01*
X65617335Y-86106206D01*
X65617328Y-86106202D01*
X65482486Y-86055910D01*
X65482485Y-86055909D01*
X65482483Y-86055909D01*
X65422873Y-86049500D01*
X65422863Y-86049500D01*
X64927129Y-86049500D01*
X64927123Y-86049501D01*
X64867516Y-86055908D01*
X64732671Y-86106202D01*
X64732664Y-86106206D01*
X64617455Y-86192452D01*
X64617452Y-86192455D01*
X64531206Y-86307664D01*
X64531202Y-86307671D01*
X64480908Y-86442517D01*
X64476124Y-86487021D01*
X64474501Y-86502123D01*
X64474500Y-86502135D01*
X64474500Y-86817897D01*
X64470275Y-86849989D01*
X64449500Y-86927523D01*
X64449500Y-89543964D01*
X64429815Y-89611003D01*
X64399812Y-89643230D01*
X64367457Y-89667450D01*
X64367451Y-89667457D01*
X64281206Y-89782664D01*
X64281202Y-89782671D01*
X64246986Y-89874411D01*
X64230909Y-89917517D01*
X64224500Y-89977127D01*
X62655652Y-89977127D01*
X62463016Y-89784491D01*
X62463015Y-89784490D01*
X62337485Y-89712016D01*
X62337486Y-89712016D01*
X62302482Y-89702637D01*
X62197475Y-89674500D01*
X62197472Y-89674500D01*
X61724263Y-89674500D01*
X61657224Y-89654815D01*
X61631227Y-89630761D01*
X61631072Y-89630917D01*
X61627080Y-89626925D01*
X61625460Y-89625426D01*
X61625078Y-89624922D01*
X61575454Y-89587291D01*
X61504575Y-89533541D01*
X61463051Y-89477348D01*
X61455500Y-89434737D01*
X61455500Y-88540503D01*
X61462459Y-88499548D01*
X61502645Y-88384701D01*
X61502646Y-88384699D01*
X61505500Y-88354269D01*
X61505500Y-86595730D01*
X61502646Y-86565300D01*
X61502646Y-86565298D01*
X61459682Y-86442516D01*
X61457793Y-86437118D01*
X61377150Y-86327850D01*
X61267882Y-86247207D01*
X61267880Y-86247206D01*
X61139700Y-86202353D01*
X61109270Y-86199500D01*
X61109266Y-86199500D01*
X60700734Y-86199500D01*
X60700730Y-86199500D01*
X60670302Y-86202353D01*
X60576817Y-86235065D01*
X60507039Y-86238626D01*
X60446411Y-86203897D01*
X60414184Y-86141904D01*
X60420589Y-86072328D01*
X60448180Y-86030344D01*
X60891706Y-85586819D01*
X60953029Y-85553334D01*
X60979387Y-85550500D01*
X62072472Y-85550500D01*
X62072474Y-85550500D01*
X62072475Y-85550500D01*
X62212485Y-85512984D01*
X62338015Y-85440510D01*
X63640510Y-84138015D01*
X63712984Y-84012485D01*
X63736562Y-83924490D01*
X63750500Y-83872475D01*
X63750500Y-83577127D01*
X64224500Y-83577127D01*
X64224500Y-83577134D01*
X64224500Y-83577135D01*
X64224500Y-84072870D01*
X64224501Y-84072876D01*
X64230908Y-84132483D01*
X64281202Y-84267328D01*
X64281206Y-84267335D01*
X64367452Y-84382544D01*
X64367455Y-84382547D01*
X64482664Y-84468793D01*
X64482671Y-84468797D01*
X64527618Y-84485561D01*
X64617517Y-84519091D01*
X64677127Y-84525500D01*
X65322872Y-84525499D01*
X65382483Y-84519091D01*
X65517331Y-84468796D01*
X65591623Y-84413181D01*
X65608920Y-84400233D01*
X65674385Y-84375816D01*
X65683231Y-84375500D01*
X65845613Y-84375500D01*
X65912652Y-84395185D01*
X65933294Y-84411819D01*
X66238181Y-84716705D01*
X66271666Y-84778028D01*
X66274500Y-84804386D01*
X66274500Y-86141769D01*
X66254815Y-86208808D01*
X66249767Y-86216080D01*
X66181204Y-86307668D01*
X66181202Y-86307671D01*
X66132922Y-86437119D01*
X66130909Y-86442517D01*
X66124500Y-86502127D01*
X66124500Y-86502134D01*
X66124500Y-86502135D01*
X66124500Y-87147870D01*
X66124501Y-87147876D01*
X66130908Y-87207483D01*
X66181202Y-87342328D01*
X66181203Y-87342330D01*
X66249767Y-87433919D01*
X66274184Y-87499383D01*
X66274500Y-87508230D01*
X66274500Y-87552526D01*
X66274500Y-87697474D01*
X66312016Y-87837485D01*
X66384489Y-87963013D01*
X66384491Y-87963016D01*
X67413181Y-88991706D01*
X67446666Y-89053029D01*
X67449500Y-89079387D01*
X67449500Y-89543964D01*
X67429815Y-89611003D01*
X67399812Y-89643230D01*
X67367457Y-89667450D01*
X67367451Y-89667457D01*
X67281206Y-89782664D01*
X67281202Y-89782671D01*
X67246986Y-89874411D01*
X67230909Y-89917517D01*
X67224500Y-89977127D01*
X67224500Y-89977134D01*
X67224500Y-89977135D01*
X67224500Y-90472870D01*
X67224501Y-90472876D01*
X67230908Y-90532483D01*
X67281202Y-90667328D01*
X67281206Y-90667335D01*
X67367452Y-90782544D01*
X67367455Y-90782547D01*
X67482664Y-90868793D01*
X67482671Y-90868797D01*
X67527618Y-90885561D01*
X67617517Y-90919091D01*
X67677127Y-90925500D01*
X68322872Y-90925499D01*
X68382483Y-90919091D01*
X68517331Y-90868796D01*
X68575819Y-90825011D01*
X68608920Y-90800233D01*
X68674385Y-90775816D01*
X68683231Y-90775500D01*
X70316769Y-90775500D01*
X70383808Y-90795185D01*
X70391080Y-90800233D01*
X70482668Y-90868795D01*
X70482671Y-90868797D01*
X70527618Y-90885561D01*
X70617517Y-90919091D01*
X70677127Y-90925500D01*
X71322872Y-90925499D01*
X71382483Y-90919091D01*
X71517331Y-90868796D01*
X71632546Y-90782546D01*
X71718796Y-90667331D01*
X71769091Y-90532483D01*
X71775500Y-90472873D01*
X71775499Y-89977128D01*
X71769091Y-89917517D01*
X71718796Y-89782669D01*
X71718795Y-89782668D01*
X71718793Y-89782664D01*
X71632547Y-89667455D01*
X71632544Y-89667452D01*
X71517335Y-89581206D01*
X71517328Y-89581202D01*
X71382486Y-89530910D01*
X71382485Y-89530909D01*
X71382483Y-89530909D01*
X71322873Y-89524500D01*
X71322863Y-89524500D01*
X70677129Y-89524500D01*
X70677123Y-89524501D01*
X70617516Y-89530908D01*
X70482671Y-89581202D01*
X70482668Y-89581204D01*
X70391080Y-89649767D01*
X70325615Y-89674184D01*
X70316769Y-89674500D01*
X68683230Y-89674500D01*
X68616191Y-89654815D01*
X68608914Y-89649763D01*
X68600184Y-89643227D01*
X68558316Y-89587291D01*
X68550500Y-89543964D01*
X68550500Y-88727527D01*
X68550500Y-88727525D01*
X68512984Y-88587515D01*
X68440510Y-88461985D01*
X67565706Y-87587181D01*
X67532221Y-87525858D01*
X67537205Y-87456166D01*
X67579077Y-87400233D01*
X67644541Y-87375816D01*
X67653387Y-87375500D01*
X69947472Y-87375500D01*
X69947474Y-87375500D01*
X69947475Y-87375500D01*
X70087485Y-87337984D01*
X70213015Y-87265510D01*
X71440510Y-86038015D01*
X71512984Y-85912485D01*
X71526237Y-85863025D01*
X71529054Y-85852514D01*
X71536903Y-85823217D01*
X71550500Y-85772475D01*
X71550500Y-84506034D01*
X71570185Y-84438995D01*
X71600185Y-84406770D01*
X71632546Y-84382546D01*
X71718796Y-84267331D01*
X71769091Y-84132483D01*
X71775500Y-84072873D01*
X71775499Y-83577128D01*
X71769091Y-83517517D01*
X71744839Y-83452495D01*
X71718797Y-83382671D01*
X71718793Y-83382664D01*
X71632547Y-83267455D01*
X71632544Y-83267452D01*
X71517335Y-83181206D01*
X71517328Y-83181202D01*
X71382486Y-83130910D01*
X71382485Y-83130909D01*
X71382483Y-83130909D01*
X71322873Y-83124500D01*
X71322863Y-83124500D01*
X70677129Y-83124500D01*
X70677123Y-83124501D01*
X70617516Y-83130908D01*
X70482671Y-83181202D01*
X70482664Y-83181206D01*
X70367455Y-83267452D01*
X70367452Y-83267455D01*
X70281206Y-83382664D01*
X70281202Y-83382671D01*
X70230910Y-83517513D01*
X70230909Y-83517517D01*
X70224500Y-83577127D01*
X70224500Y-83577134D01*
X70224500Y-83577135D01*
X70224500Y-84072870D01*
X70224501Y-84072876D01*
X70230908Y-84132483D01*
X70281202Y-84267328D01*
X70281203Y-84267329D01*
X70281204Y-84267331D01*
X70367452Y-84382543D01*
X70367451Y-84382543D01*
X70367452Y-84382544D01*
X70367454Y-84382546D01*
X70399812Y-84406769D01*
X70441681Y-84462700D01*
X70449500Y-84506034D01*
X70449500Y-85420613D01*
X70429815Y-85487652D01*
X70413181Y-85508294D01*
X69683294Y-86238181D01*
X69621971Y-86271666D01*
X69595613Y-86274500D01*
X67506035Y-86274500D01*
X67438996Y-86254815D01*
X67406763Y-86224804D01*
X67400228Y-86216073D01*
X67375815Y-86150606D01*
X67375500Y-86141769D01*
X67375500Y-84452527D01*
X67375500Y-84452525D01*
X67337984Y-84312515D01*
X67337728Y-84312072D01*
X67265511Y-84186988D01*
X67265506Y-84186982D01*
X67163015Y-84084491D01*
X66463016Y-83384491D01*
X66463011Y-83384487D01*
X66337490Y-83312018D01*
X66337486Y-83312016D01*
X66337485Y-83312016D01*
X66337270Y-83311958D01*
X66336942Y-83311870D01*
X66336933Y-83311868D01*
X66197475Y-83274500D01*
X66197472Y-83274500D01*
X65683231Y-83274500D01*
X65616192Y-83254815D01*
X65608920Y-83249767D01*
X65517331Y-83181204D01*
X65517328Y-83181202D01*
X65382486Y-83130910D01*
X65382485Y-83130909D01*
X65382483Y-83130909D01*
X65322873Y-83124500D01*
X65322863Y-83124500D01*
X64677129Y-83124500D01*
X64677123Y-83124501D01*
X64617516Y-83130908D01*
X64482671Y-83181202D01*
X64482664Y-83181206D01*
X64367455Y-83267452D01*
X64367452Y-83267455D01*
X64281206Y-83382664D01*
X64281202Y-83382671D01*
X64230910Y-83517513D01*
X64230909Y-83517517D01*
X64224500Y-83577127D01*
X63750500Y-83577127D01*
X63750500Y-82879387D01*
X63770185Y-82812348D01*
X63786819Y-82791706D01*
X63816706Y-82761819D01*
X63878029Y-82728334D01*
X63904387Y-82725500D01*
X64316769Y-82725500D01*
X64383808Y-82745185D01*
X64391080Y-82750233D01*
X64482668Y-82818795D01*
X64482671Y-82818797D01*
X64507413Y-82828025D01*
X64617517Y-82869091D01*
X64677127Y-82875500D01*
X65322872Y-82875499D01*
X65382483Y-82869091D01*
X65517331Y-82818796D01*
X65575835Y-82775000D01*
X65608920Y-82750233D01*
X65674385Y-82725816D01*
X65683231Y-82725500D01*
X70316769Y-82725500D01*
X70383808Y-82745185D01*
X70391080Y-82750233D01*
X70482668Y-82818795D01*
X70482671Y-82818797D01*
X70507413Y-82828025D01*
X70617517Y-82869091D01*
X70677127Y-82875500D01*
X71322872Y-82875499D01*
X71382483Y-82869091D01*
X71517331Y-82818796D01*
X71632546Y-82732546D01*
X71718796Y-82617331D01*
X71769091Y-82482483D01*
X71775500Y-82422873D01*
X71775499Y-81927128D01*
X71769091Y-81867517D01*
X71718796Y-81732669D01*
X71718795Y-81732668D01*
X71718793Y-81732664D01*
X71632547Y-81617455D01*
X71632544Y-81617452D01*
X71517335Y-81531206D01*
X71517328Y-81531202D01*
X71382486Y-81480910D01*
X71382485Y-81480909D01*
X71382483Y-81480909D01*
X71322873Y-81474500D01*
X71322863Y-81474500D01*
X70677129Y-81474500D01*
X70677123Y-81474501D01*
X70617516Y-81480908D01*
X70482671Y-81531202D01*
X70482668Y-81531204D01*
X70391080Y-81599767D01*
X70325615Y-81624184D01*
X70316769Y-81624500D01*
X65683230Y-81624500D01*
X65616191Y-81604815D01*
X65608914Y-81599763D01*
X65600184Y-81593227D01*
X65558316Y-81537291D01*
X65550500Y-81493964D01*
X65550500Y-80547844D01*
X67000000Y-80547844D01*
X67006401Y-80607372D01*
X67006403Y-80607379D01*
X67056645Y-80742086D01*
X67056649Y-80742093D01*
X67142809Y-80857187D01*
X67142812Y-80857190D01*
X67257906Y-80943350D01*
X67257913Y-80943354D01*
X67392620Y-80993596D01*
X67392627Y-80993598D01*
X67452155Y-80999999D01*
X67452172Y-81000000D01*
X69750000Y-81000000D01*
X70250000Y-81000000D01*
X72547828Y-81000000D01*
X72547844Y-80999999D01*
X72607372Y-80993598D01*
X72607379Y-80993596D01*
X72742086Y-80943354D01*
X72742093Y-80943350D01*
X72857187Y-80857190D01*
X72857190Y-80857187D01*
X72943350Y-80742093D01*
X72943354Y-80742086D01*
X72993596Y-80607379D01*
X72993598Y-80607372D01*
X72999999Y-80547844D01*
X73000000Y-80547827D01*
X73000000Y-78250000D01*
X70250000Y-78250000D01*
X70250000Y-81000000D01*
X69750000Y-81000000D01*
X69750000Y-78250000D01*
X67000000Y-78250000D01*
X67000000Y-80547844D01*
X65550500Y-80547844D01*
X65550500Y-79506034D01*
X65570185Y-79438995D01*
X65600185Y-79406770D01*
X65632546Y-79382546D01*
X65718796Y-79267331D01*
X65769091Y-79132483D01*
X65775500Y-79072873D01*
X65775499Y-78577128D01*
X65769091Y-78517517D01*
X65743722Y-78449500D01*
X65718797Y-78382671D01*
X65718793Y-78382664D01*
X65632547Y-78267455D01*
X65632544Y-78267452D01*
X65517335Y-78181206D01*
X65517328Y-78181202D01*
X65382486Y-78130910D01*
X65382485Y-78130909D01*
X65382483Y-78130909D01*
X65322873Y-78124500D01*
X65322863Y-78124500D01*
X64677129Y-78124500D01*
X64677123Y-78124501D01*
X64617516Y-78130908D01*
X64482671Y-78181202D01*
X64482664Y-78181206D01*
X64367455Y-78267452D01*
X64367452Y-78267455D01*
X64281206Y-78382664D01*
X64281202Y-78382671D01*
X64231839Y-78515023D01*
X64230909Y-78517517D01*
X64224500Y-78577127D01*
X64224500Y-78577134D01*
X64224500Y-78577135D01*
X64224500Y-79072870D01*
X64224501Y-79072876D01*
X64230908Y-79132483D01*
X64281202Y-79267328D01*
X64281203Y-79267329D01*
X64281204Y-79267331D01*
X64367452Y-79382543D01*
X64367451Y-79382543D01*
X64367452Y-79382544D01*
X64367454Y-79382546D01*
X64399812Y-79406769D01*
X64441681Y-79462700D01*
X64449500Y-79506034D01*
X64449500Y-81493964D01*
X64429815Y-81561003D01*
X64399816Y-81593227D01*
X64391086Y-81599763D01*
X64325623Y-81624184D01*
X64316770Y-81624500D01*
X63552525Y-81624500D01*
X63535779Y-81628987D01*
X63473280Y-81645733D01*
X63473280Y-81645734D01*
X63412515Y-81662016D01*
X63412513Y-81662016D01*
X63412513Y-81662017D01*
X63286986Y-81734489D01*
X63286983Y-81734491D01*
X62759489Y-82261985D01*
X62730318Y-82312514D01*
X62730317Y-82312515D01*
X62687017Y-82387512D01*
X62687016Y-82387513D01*
X62668258Y-82457520D01*
X62649500Y-82527525D01*
X62649500Y-82527527D01*
X62649500Y-83520613D01*
X62629815Y-83587652D01*
X62613181Y-83608294D01*
X61808294Y-84413181D01*
X61746971Y-84446666D01*
X61720613Y-84449500D01*
X60627525Y-84449500D01*
X60522517Y-84477637D01*
X60487514Y-84487016D01*
X60371355Y-84554080D01*
X60303455Y-84570551D01*
X60237428Y-84547699D01*
X60194238Y-84492777D01*
X60188324Y-84445602D01*
X60185500Y-84445602D01*
X60185500Y-83985756D01*
X60205185Y-83918717D01*
X60257989Y-83872962D01*
X60327147Y-83863018D01*
X60372621Y-83879024D01*
X60494801Y-83951281D01*
X60652514Y-83997100D01*
X60652511Y-83997100D01*
X60654998Y-83997295D01*
X60655000Y-83997295D01*
X61155000Y-83997295D01*
X61155001Y-83997295D01*
X61157486Y-83997100D01*
X61315198Y-83951281D01*
X61456552Y-83867685D01*
X61456561Y-83867678D01*
X61572678Y-83751561D01*
X61572685Y-83751552D01*
X61656282Y-83610196D01*
X61656283Y-83610193D01*
X61702099Y-83452495D01*
X61702100Y-83452489D01*
X61704999Y-83415649D01*
X61705000Y-83415634D01*
X61705000Y-82775000D01*
X61155000Y-82775000D01*
X61155000Y-83997295D01*
X60655000Y-83997295D01*
X60655000Y-82275000D01*
X61155000Y-82275000D01*
X61705000Y-82275000D01*
X61705000Y-81634365D01*
X61704999Y-81634350D01*
X61702100Y-81597510D01*
X61702099Y-81597504D01*
X61656283Y-81439806D01*
X61656282Y-81439803D01*
X61572685Y-81298447D01*
X61572678Y-81298438D01*
X61456561Y-81182321D01*
X61456552Y-81182314D01*
X61315196Y-81098717D01*
X61315193Y-81098716D01*
X61157494Y-81052900D01*
X61157497Y-81052900D01*
X61155000Y-81052703D01*
X61155000Y-82275000D01*
X60655000Y-82275000D01*
X60655000Y-81052703D01*
X60652503Y-81052900D01*
X60494806Y-81098716D01*
X60494805Y-81098716D01*
X60437620Y-81132535D01*
X60369896Y-81149716D01*
X60303633Y-81127556D01*
X60259871Y-81073090D01*
X60250500Y-81025802D01*
X60250500Y-80979387D01*
X60270185Y-80912348D01*
X60286819Y-80891706D01*
X60321338Y-80857187D01*
X60440510Y-80738015D01*
X60512984Y-80612485D01*
X60550500Y-80472474D01*
X60550500Y-80327526D01*
X60550500Y-79718221D01*
X60570185Y-79651182D01*
X60599577Y-79619416D01*
X60625078Y-79600078D01*
X60625461Y-79599574D01*
X60625928Y-79599228D01*
X60631076Y-79594081D01*
X60631848Y-79594853D01*
X60681653Y-79558051D01*
X60724264Y-79550500D01*
X61772472Y-79550500D01*
X61772474Y-79550500D01*
X61772475Y-79550500D01*
X61912485Y-79512984D01*
X61944613Y-79494435D01*
X62038015Y-79440510D01*
X63716706Y-77761819D01*
X63778029Y-77728334D01*
X63804387Y-77725500D01*
X64316769Y-77725500D01*
X64383808Y-77745185D01*
X64391080Y-77750233D01*
X64482668Y-77818795D01*
X64482671Y-77818797D01*
X64512212Y-77829815D01*
X64617517Y-77869091D01*
X64677127Y-77875500D01*
X65322872Y-77875499D01*
X65382483Y-77869091D01*
X65517331Y-77818796D01*
X65632546Y-77732546D01*
X65718796Y-77617331D01*
X65769091Y-77482483D01*
X65775500Y-77422873D01*
X65775499Y-76927128D01*
X65769091Y-76867517D01*
X65728130Y-76757696D01*
X65718797Y-76732671D01*
X65718793Y-76732664D01*
X65632547Y-76617455D01*
X65632544Y-76617452D01*
X65517335Y-76531206D01*
X65517328Y-76531202D01*
X65382486Y-76480910D01*
X65382485Y-76480909D01*
X65382483Y-76480909D01*
X65322873Y-76474500D01*
X65322863Y-76474500D01*
X64677129Y-76474500D01*
X64677123Y-76474501D01*
X64617516Y-76480908D01*
X64482671Y-76531202D01*
X64482668Y-76531204D01*
X64391080Y-76599767D01*
X64325615Y-76624184D01*
X64316769Y-76624500D01*
X63452525Y-76624500D01*
X63376951Y-76644750D01*
X63376950Y-76644749D01*
X63312519Y-76662014D01*
X63312514Y-76662016D01*
X63186986Y-76734489D01*
X63186983Y-76734491D01*
X61508294Y-78413181D01*
X61446971Y-78446666D01*
X61420613Y-78449500D01*
X60800167Y-78449500D01*
X60733128Y-78429815D01*
X60687373Y-78377011D01*
X60677429Y-78307853D01*
X60706454Y-78244297D01*
X60712486Y-78237819D01*
X60822572Y-78127732D01*
X60822575Y-78127728D01*
X60911542Y-77983492D01*
X60911547Y-77983481D01*
X60964855Y-77822606D01*
X60974999Y-77723322D01*
X60975000Y-77723309D01*
X60975000Y-77700000D01*
X59874000Y-77700000D01*
X59806961Y-77680315D01*
X59761206Y-77627511D01*
X59750000Y-77576000D01*
X59750000Y-77200000D01*
X60250000Y-77200000D01*
X60974999Y-77200000D01*
X60974999Y-77176692D01*
X60974998Y-77176677D01*
X60964855Y-77077392D01*
X60911547Y-76916518D01*
X60911542Y-76916507D01*
X60822575Y-76772271D01*
X60822572Y-76772267D01*
X60702732Y-76652427D01*
X60702728Y-76652424D01*
X60558492Y-76563457D01*
X60558481Y-76563452D01*
X60397606Y-76510144D01*
X60298322Y-76500000D01*
X60250000Y-76500000D01*
X60250000Y-77200000D01*
X59750000Y-77200000D01*
X59750000Y-76500000D01*
X59749999Y-76499999D01*
X59701693Y-76500000D01*
X59701675Y-76500001D01*
X59602392Y-76510144D01*
X59441518Y-76563452D01*
X59441507Y-76563457D01*
X59297271Y-76652424D01*
X59297266Y-76652427D01*
X59225482Y-76724211D01*
X59164159Y-76757696D01*
X59094467Y-76752710D01*
X59038534Y-76710838D01*
X59032806Y-76702497D01*
X59029816Y-76697738D01*
X58902262Y-76570184D01*
X58749523Y-76474211D01*
X58579254Y-76414631D01*
X58579249Y-76414630D01*
X58400004Y-76394435D01*
X58399996Y-76394435D01*
X58220750Y-76414630D01*
X58220745Y-76414631D01*
X58050476Y-76474211D01*
X57897737Y-76570184D01*
X57879741Y-76588181D01*
X57818418Y-76621666D01*
X57792060Y-76624500D01*
X57683231Y-76624500D01*
X57616192Y-76604815D01*
X57608920Y-76599767D01*
X57517331Y-76531204D01*
X57517328Y-76531202D01*
X57382486Y-76480910D01*
X57382485Y-76480909D01*
X57382483Y-76480909D01*
X57322873Y-76474500D01*
X57322863Y-76474500D01*
X56677129Y-76474500D01*
X56677123Y-76474501D01*
X56617516Y-76480908D01*
X56482671Y-76531202D01*
X56482664Y-76531206D01*
X56367455Y-76617452D01*
X56367452Y-76617455D01*
X56281206Y-76732664D01*
X56281202Y-76732671D01*
X56237264Y-76850478D01*
X56230909Y-76867517D01*
X56224500Y-76927127D01*
X56224500Y-76927134D01*
X56224500Y-76927135D01*
X56224500Y-77422870D01*
X56224501Y-77422876D01*
X56230908Y-77482483D01*
X56281202Y-77617328D01*
X56281206Y-77617335D01*
X56367452Y-77732544D01*
X56367455Y-77732547D01*
X56482664Y-77818793D01*
X56482671Y-77818797D01*
X56512212Y-77829815D01*
X56617517Y-77869091D01*
X56677127Y-77875500D01*
X57322872Y-77875499D01*
X57382483Y-77869091D01*
X57517331Y-77818796D01*
X57575819Y-77775011D01*
X57608920Y-77750233D01*
X57674385Y-77725816D01*
X57683231Y-77725500D01*
X57742060Y-77725500D01*
X57809099Y-77745185D01*
X57829741Y-77761819D01*
X57897738Y-77829816D01*
X58050478Y-77925789D01*
X58215352Y-77983481D01*
X58220745Y-77985368D01*
X58220750Y-77985369D01*
X58399996Y-78005565D01*
X58400000Y-78005565D01*
X58400004Y-78005565D01*
X58579249Y-77985369D01*
X58579252Y-77985368D01*
X58579255Y-77985368D01*
X58749522Y-77925789D01*
X58880295Y-77843618D01*
X58947531Y-77824618D01*
X59014366Y-77844985D01*
X59059581Y-77898253D01*
X59063973Y-77909608D01*
X59088452Y-77983481D01*
X59088457Y-77983492D01*
X59177424Y-78127728D01*
X59177427Y-78127732D01*
X59297268Y-78247573D01*
X59312684Y-78257082D01*
X59359408Y-78309031D01*
X59370629Y-78377994D01*
X59346390Y-78437545D01*
X59287636Y-78515023D01*
X59234640Y-78649411D01*
X59229065Y-78695841D01*
X59224500Y-78733856D01*
X59224500Y-79266144D01*
X59224643Y-79267331D01*
X59234640Y-79350588D01*
X59287636Y-79484976D01*
X59374277Y-79599228D01*
X59374922Y-79600078D01*
X59400425Y-79619417D01*
X59441948Y-79675609D01*
X59449500Y-79718221D01*
X59449500Y-80120613D01*
X59429815Y-80187652D01*
X59413181Y-80208294D01*
X59259491Y-80361983D01*
X59259487Y-80361988D01*
X59236109Y-80402483D01*
X59236108Y-80402485D01*
X59187017Y-80487512D01*
X59187016Y-80487513D01*
X59174334Y-80534842D01*
X59159273Y-80591048D01*
X59122910Y-80650707D01*
X59060063Y-80681236D01*
X58990687Y-80672941D01*
X58936809Y-80628456D01*
X58915535Y-80561904D01*
X58915500Y-80558953D01*
X58915500Y-80117527D01*
X58915500Y-80117525D01*
X58877984Y-79977515D01*
X58837491Y-79907379D01*
X58805510Y-79851986D01*
X58329024Y-79375500D01*
X57811818Y-78858293D01*
X57778333Y-78796970D01*
X57775499Y-78770612D01*
X57775499Y-78577129D01*
X57775498Y-78577123D01*
X57769091Y-78517516D01*
X57718797Y-78382671D01*
X57718793Y-78382664D01*
X57632547Y-78267455D01*
X57632544Y-78267452D01*
X57517335Y-78181206D01*
X57517328Y-78181202D01*
X57382486Y-78130910D01*
X57382485Y-78130909D01*
X57382483Y-78130909D01*
X57322873Y-78124500D01*
X57322863Y-78124500D01*
X56677129Y-78124500D01*
X56677123Y-78124501D01*
X56617515Y-78130909D01*
X56540624Y-78159587D01*
X56470933Y-78164571D01*
X56409611Y-78131086D01*
X55013016Y-76734491D01*
X55013015Y-76734490D01*
X54887485Y-76662016D01*
X54887480Y-76662014D01*
X54823049Y-76644749D01*
X54823049Y-76644750D01*
X54785261Y-76634625D01*
X54747475Y-76624500D01*
X54747474Y-76624500D01*
X54683231Y-76624500D01*
X54616192Y-76604815D01*
X54608920Y-76599767D01*
X54517331Y-76531204D01*
X54517328Y-76531202D01*
X54382486Y-76480910D01*
X54382485Y-76480909D01*
X54382483Y-76480909D01*
X54322873Y-76474500D01*
X54322863Y-76474500D01*
X53677129Y-76474500D01*
X53677123Y-76474501D01*
X53617516Y-76480908D01*
X53482671Y-76531202D01*
X53482668Y-76531204D01*
X53391080Y-76599767D01*
X53325615Y-76624184D01*
X53316769Y-76624500D01*
X51683231Y-76624500D01*
X51616192Y-76604815D01*
X51608920Y-76599767D01*
X51517331Y-76531204D01*
X51517328Y-76531202D01*
X51382486Y-76480910D01*
X51382485Y-76480909D01*
X51382483Y-76480909D01*
X51322873Y-76474500D01*
X51322863Y-76474500D01*
X50677129Y-76474500D01*
X50677123Y-76474501D01*
X50617516Y-76480908D01*
X50482671Y-76531202D01*
X50482664Y-76531206D01*
X50367455Y-76617452D01*
X50367452Y-76617455D01*
X50281206Y-76732664D01*
X50281202Y-76732671D01*
X50237264Y-76850478D01*
X50230909Y-76867517D01*
X50224500Y-76927127D01*
X50224500Y-76927134D01*
X50224500Y-76927135D01*
X50224500Y-77422870D01*
X50224501Y-77422876D01*
X50230908Y-77482483D01*
X50281202Y-77617328D01*
X50281206Y-77617335D01*
X50367452Y-77732544D01*
X50367455Y-77732547D01*
X50482664Y-77818793D01*
X50482671Y-77818797D01*
X50512212Y-77829815D01*
X50617517Y-77869091D01*
X50677127Y-77875500D01*
X51322872Y-77875499D01*
X51382483Y-77869091D01*
X51517331Y-77818796D01*
X51575819Y-77775011D01*
X51608920Y-77750233D01*
X51674385Y-77725816D01*
X51683231Y-77725500D01*
X53316769Y-77725500D01*
X53383808Y-77745185D01*
X53391080Y-77750233D01*
X53482668Y-77818795D01*
X53482671Y-77818797D01*
X53512212Y-77829815D01*
X53617517Y-77869091D01*
X53677127Y-77875500D01*
X54322872Y-77875499D01*
X54382483Y-77869091D01*
X54459376Y-77840411D01*
X54529065Y-77835428D01*
X54590385Y-77868910D01*
X55986985Y-79265510D01*
X56112515Y-79337984D01*
X56252525Y-79375500D01*
X56316769Y-79375500D01*
X56383808Y-79395185D01*
X56391080Y-79400233D01*
X56489769Y-79474111D01*
X56488043Y-79476416D01*
X56527127Y-79515491D01*
X56541986Y-79583763D01*
X56517576Y-79649230D01*
X56502343Y-79664941D01*
X56502662Y-79665260D01*
X56370184Y-79797737D01*
X56274211Y-79950476D01*
X56214631Y-80120745D01*
X56214630Y-80120750D01*
X56194435Y-80299996D01*
X56194435Y-80300003D01*
X56214630Y-80479249D01*
X56214631Y-80479254D01*
X56274211Y-80649523D01*
X56332373Y-80742086D01*
X56370184Y-80802262D01*
X56497738Y-80929816D01*
X56497741Y-80929818D01*
X56497810Y-80929873D01*
X56497845Y-80929923D01*
X56502662Y-80934740D01*
X56501818Y-80935583D01*
X56537952Y-80987060D01*
X56544500Y-81026822D01*
X56544500Y-81459495D01*
X56537542Y-81500449D01*
X56497353Y-81615302D01*
X56494500Y-81645730D01*
X56494500Y-82295613D01*
X56474815Y-82362652D01*
X56458181Y-82383294D01*
X55640794Y-83200681D01*
X55579471Y-83234166D01*
X55553113Y-83237000D01*
X54717097Y-83237000D01*
X54650058Y-83217315D01*
X54629416Y-83200681D01*
X54626869Y-83198134D01*
X54513134Y-83111886D01*
X54506378Y-83108088D01*
X54457589Y-83058075D01*
X54443583Y-82989624D01*
X54468808Y-82924466D01*
X54506378Y-82891912D01*
X54513126Y-82888117D01*
X54513132Y-82888115D01*
X54626867Y-82801867D01*
X54713115Y-82688132D01*
X54765479Y-82555346D01*
X54775500Y-82471902D01*
X54775500Y-81953098D01*
X54765479Y-81869654D01*
X54713115Y-81736868D01*
X54713113Y-81736865D01*
X54626866Y-81623131D01*
X54599574Y-81602435D01*
X54558051Y-81546243D01*
X54550500Y-81503632D01*
X54550500Y-79506034D01*
X54570185Y-79438995D01*
X54600185Y-79406770D01*
X54632546Y-79382546D01*
X54718796Y-79267331D01*
X54769091Y-79132483D01*
X54775500Y-79072873D01*
X54775499Y-78577128D01*
X54769091Y-78517517D01*
X54743722Y-78449500D01*
X54718797Y-78382671D01*
X54718793Y-78382664D01*
X54632547Y-78267455D01*
X54632544Y-78267452D01*
X54517335Y-78181206D01*
X54517328Y-78181202D01*
X54382486Y-78130910D01*
X54382485Y-78130909D01*
X54382483Y-78130909D01*
X54322873Y-78124500D01*
X54322863Y-78124500D01*
X53677129Y-78124500D01*
X53677123Y-78124501D01*
X53617516Y-78130908D01*
X53482671Y-78181202D01*
X53482664Y-78181206D01*
X53367455Y-78267452D01*
X53367452Y-78267455D01*
X53281206Y-78382664D01*
X53281202Y-78382671D01*
X53231839Y-78515023D01*
X53230909Y-78517517D01*
X53224500Y-78577127D01*
X53224500Y-78577134D01*
X53224500Y-78577135D01*
X53224500Y-79072870D01*
X53224501Y-79072876D01*
X53230908Y-79132483D01*
X53281202Y-79267328D01*
X53281203Y-79267329D01*
X53281204Y-79267331D01*
X53367452Y-79382543D01*
X53367451Y-79382543D01*
X53367452Y-79382544D01*
X53367454Y-79382546D01*
X53399812Y-79406769D01*
X53441681Y-79462700D01*
X53449500Y-79506034D01*
X53449500Y-81503632D01*
X53429815Y-81570671D01*
X53400426Y-81602435D01*
X53373133Y-81623131D01*
X53286886Y-81736865D01*
X53234520Y-81869655D01*
X53234520Y-81869656D01*
X53224500Y-81953097D01*
X53224500Y-82471902D01*
X53234520Y-82555343D01*
X53234520Y-82555344D01*
X53286886Y-82688134D01*
X53373132Y-82801867D01*
X53486868Y-82888115D01*
X53493624Y-82891914D01*
X53542412Y-82941928D01*
X53556416Y-83010380D01*
X53531188Y-83075537D01*
X53493624Y-83108086D01*
X53486868Y-83111884D01*
X53373132Y-83198132D01*
X53286886Y-83311865D01*
X53234520Y-83444655D01*
X53234520Y-83444656D01*
X53224500Y-83528097D01*
X53224500Y-84046902D01*
X53234520Y-84130343D01*
X53234520Y-84130344D01*
X53286886Y-84263134D01*
X53315209Y-84300483D01*
X53373133Y-84376867D01*
X53400425Y-84397563D01*
X53441948Y-84453753D01*
X53449500Y-84496366D01*
X53449500Y-86020613D01*
X53429815Y-86087652D01*
X53413181Y-86108294D01*
X50099491Y-89421983D01*
X50099489Y-89421986D01*
X50032720Y-89537636D01*
X50032717Y-89537640D01*
X50027017Y-89547511D01*
X50027016Y-89547515D01*
X49989500Y-89687525D01*
X49989500Y-89687527D01*
X49989500Y-92075500D01*
X49969815Y-92142539D01*
X49917011Y-92188294D01*
X49865500Y-92199500D01*
X47455143Y-92199500D01*
X47455117Y-92199502D01*
X47430012Y-92202413D01*
X47430008Y-92202415D01*
X47327235Y-92247793D01*
X47247794Y-92327234D01*
X47202415Y-92430006D01*
X47202415Y-92430008D01*
X47199500Y-92455131D01*
X45500500Y-92455131D01*
X45500500Y-84054152D01*
X50025001Y-84054152D01*
X50035056Y-84152583D01*
X50087906Y-84312072D01*
X50087908Y-84312077D01*
X50176114Y-84455080D01*
X50294919Y-84573885D01*
X50437922Y-84662091D01*
X50437927Y-84662093D01*
X50597416Y-84714942D01*
X50695855Y-84724999D01*
X51250000Y-84724999D01*
X51304136Y-84724999D01*
X51304152Y-84724998D01*
X51402583Y-84714943D01*
X51562072Y-84662093D01*
X51562077Y-84662091D01*
X51705080Y-84573885D01*
X51823885Y-84455080D01*
X51912091Y-84312077D01*
X51912093Y-84312072D01*
X51964942Y-84152583D01*
X51974999Y-84054150D01*
X51975000Y-84054137D01*
X51975000Y-84037500D01*
X51250000Y-84037500D01*
X51250000Y-84724999D01*
X50695855Y-84724999D01*
X50749999Y-84724998D01*
X50750000Y-84724998D01*
X50750000Y-84037500D01*
X50025001Y-84037500D01*
X50025001Y-84054152D01*
X45500500Y-84054152D01*
X45500500Y-83520849D01*
X50025000Y-83520849D01*
X50025000Y-83537500D01*
X51974999Y-83537500D01*
X51974999Y-83520864D01*
X51974998Y-83520847D01*
X51964943Y-83422416D01*
X51912093Y-83262927D01*
X51912091Y-83262922D01*
X51823885Y-83119919D01*
X51705079Y-83001113D01*
X51705075Y-83001110D01*
X51665053Y-82976424D01*
X51618328Y-82924476D01*
X51607107Y-82855514D01*
X51631346Y-82795961D01*
X51713113Y-82688134D01*
X51713115Y-82688132D01*
X51765479Y-82555346D01*
X51775500Y-82471902D01*
X51775500Y-81953098D01*
X51765479Y-81869654D01*
X51713115Y-81736868D01*
X51713113Y-81736865D01*
X51626866Y-81623131D01*
X51599574Y-81602435D01*
X51558051Y-81546243D01*
X51550500Y-81503632D01*
X51550500Y-79506034D01*
X51570185Y-79438995D01*
X51600185Y-79406770D01*
X51632546Y-79382546D01*
X51718796Y-79267331D01*
X51769091Y-79132483D01*
X51775500Y-79072873D01*
X51775499Y-78577128D01*
X51769091Y-78517517D01*
X51743722Y-78449500D01*
X51718797Y-78382671D01*
X51718793Y-78382664D01*
X51632547Y-78267455D01*
X51632544Y-78267452D01*
X51517335Y-78181206D01*
X51517328Y-78181202D01*
X51382486Y-78130910D01*
X51382485Y-78130909D01*
X51382483Y-78130909D01*
X51322873Y-78124500D01*
X51322863Y-78124500D01*
X50677129Y-78124500D01*
X50677123Y-78124501D01*
X50617516Y-78130908D01*
X50482671Y-78181202D01*
X50482664Y-78181206D01*
X50367455Y-78267452D01*
X50367452Y-78267455D01*
X50281206Y-78382664D01*
X50281202Y-78382671D01*
X50231839Y-78515023D01*
X50230909Y-78517517D01*
X50224500Y-78577127D01*
X50224500Y-78577134D01*
X50224500Y-78577135D01*
X50224500Y-79072870D01*
X50224501Y-79072876D01*
X50230908Y-79132483D01*
X50281202Y-79267328D01*
X50281203Y-79267329D01*
X50281204Y-79267331D01*
X50367452Y-79382543D01*
X50367451Y-79382543D01*
X50367452Y-79382544D01*
X50367454Y-79382546D01*
X50399812Y-79406769D01*
X50441681Y-79462700D01*
X50449500Y-79506034D01*
X50449500Y-81503632D01*
X50429815Y-81570671D01*
X50400426Y-81602435D01*
X50373133Y-81623131D01*
X50286886Y-81736865D01*
X50234520Y-81869655D01*
X50234520Y-81869656D01*
X50224500Y-81953097D01*
X50224500Y-82471902D01*
X50234520Y-82555343D01*
X50234520Y-82555344D01*
X50286886Y-82688134D01*
X50368653Y-82795961D01*
X50393476Y-82861273D01*
X50379048Y-82929637D01*
X50334947Y-82976424D01*
X50294921Y-83001112D01*
X50176114Y-83119919D01*
X50087908Y-83262922D01*
X50087906Y-83262927D01*
X50035057Y-83422416D01*
X50025000Y-83520849D01*
X45500500Y-83520849D01*
X45500500Y-75452155D01*
X67000000Y-75452155D01*
X67000000Y-77750000D01*
X69750000Y-77750000D01*
X70250000Y-77750000D01*
X73000000Y-77750000D01*
X73000000Y-75452172D01*
X72999999Y-75452155D01*
X72993598Y-75392627D01*
X72993596Y-75392620D01*
X72943354Y-75257913D01*
X72943350Y-75257906D01*
X72857190Y-75142812D01*
X72857187Y-75142809D01*
X72742093Y-75056649D01*
X72742086Y-75056645D01*
X72607379Y-75006403D01*
X72607372Y-75006401D01*
X72547844Y-75000000D01*
X70250000Y-75000000D01*
X70250000Y-77750000D01*
X69750000Y-77750000D01*
X69750000Y-75000000D01*
X67452155Y-75000000D01*
X67392627Y-75006401D01*
X67392620Y-75006403D01*
X67257913Y-75056645D01*
X67257906Y-75056649D01*
X67142812Y-75142809D01*
X67142809Y-75142812D01*
X67056649Y-75257906D01*
X67056645Y-75257913D01*
X67006403Y-75392620D01*
X67006401Y-75392627D01*
X67000000Y-75452155D01*
X45500500Y-75452155D01*
X45500500Y-73999996D01*
X46194435Y-73999996D01*
X46194435Y-74000003D01*
X46214630Y-74179249D01*
X46214631Y-74179254D01*
X46274211Y-74349523D01*
X46370184Y-74502262D01*
X46497738Y-74629816D01*
X46650478Y-74725789D01*
X46820745Y-74785368D01*
X46820750Y-74785369D01*
X46999996Y-74805565D01*
X47000000Y-74805565D01*
X47000004Y-74805565D01*
X47179249Y-74785369D01*
X47179252Y-74785368D01*
X47179255Y-74785368D01*
X47349522Y-74725789D01*
X47502262Y-74629816D01*
X47629816Y-74502262D01*
X47725789Y-74349522D01*
X47785368Y-74179255D01*
X47805565Y-74000000D01*
X47805565Y-73999996D01*
X72194435Y-73999996D01*
X72194435Y-74000003D01*
X72214630Y-74179249D01*
X72214631Y-74179254D01*
X72274211Y-74349523D01*
X72370184Y-74502262D01*
X72497738Y-74629816D01*
X72650478Y-74725789D01*
X72820745Y-74785368D01*
X72820750Y-74785369D01*
X72999996Y-74805565D01*
X73000000Y-74805565D01*
X73000004Y-74805565D01*
X73179249Y-74785369D01*
X73179252Y-74785368D01*
X73179255Y-74785368D01*
X73349522Y-74725789D01*
X73502262Y-74629816D01*
X73629816Y-74502262D01*
X73725789Y-74349522D01*
X73785368Y-74179255D01*
X73805565Y-74000000D01*
X73785368Y-73820745D01*
X73725789Y-73650478D01*
X73629816Y-73497738D01*
X73502262Y-73370184D01*
X73349523Y-73274211D01*
X73179254Y-73214631D01*
X73179249Y-73214630D01*
X73000004Y-73194435D01*
X72999996Y-73194435D01*
X72820750Y-73214630D01*
X72820745Y-73214631D01*
X72650476Y-73274211D01*
X72497737Y-73370184D01*
X72370184Y-73497737D01*
X72274211Y-73650476D01*
X72214631Y-73820745D01*
X72214630Y-73820750D01*
X72194435Y-73999996D01*
X47805565Y-73999996D01*
X47785368Y-73820745D01*
X47725789Y-73650478D01*
X47629816Y-73497738D01*
X47502262Y-73370184D01*
X47349523Y-73274211D01*
X47179254Y-73214631D01*
X47179249Y-73214630D01*
X47000004Y-73194435D01*
X46999996Y-73194435D01*
X46820750Y-73214630D01*
X46820745Y-73214631D01*
X46650476Y-73274211D01*
X46497737Y-73370184D01*
X46370184Y-73497737D01*
X46274211Y-73650476D01*
X46214631Y-73820745D01*
X46214630Y-73820750D01*
X46194435Y-73999996D01*
X45500500Y-73999996D01*
X45500500Y-72624500D01*
X45520185Y-72557461D01*
X45572989Y-72511706D01*
X45624500Y-72500500D01*
X74375500Y-72500500D01*
X74442539Y-72520185D01*
G37*
%TD.AperFunction*%
%TD*%
M02*
