%TF.GenerationSoftware,KiCad,Pcbnew,8.0.3*%
%TF.CreationDate,2025-04-22T23:10:12+03:00*%
%TF.ProjectId,mihai555,6d696861-6935-4353-952e-6b696361645f,rev?*%
%TF.SameCoordinates,Original*%
%TF.FileFunction,Legend,Top*%
%TF.FilePolarity,Positive*%
%FSLAX46Y46*%
G04 Gerber Fmt 4.6, Leading zero omitted, Abs format (unit mm)*
G04 Created by KiCad (PCBNEW 8.0.3) date 2025-04-22 23:10:12*
%MOMM*%
%LPD*%
G01*
G04 APERTURE LIST*
%ADD10C,0.300000*%
%ADD11C,0.150000*%
%ADD12C,0.120000*%
G04 APERTURE END LIST*
D10*
X69970600Y-73554510D02*
X69970600Y-74697368D01*
X48729400Y-91445489D02*
X48729400Y-90302632D01*
X49300828Y-90874060D02*
X48157971Y-90874060D01*
D11*
X54454819Y-75166666D02*
X53978628Y-75499999D01*
X54454819Y-75738094D02*
X53454819Y-75738094D01*
X53454819Y-75738094D02*
X53454819Y-75357142D01*
X53454819Y-75357142D02*
X53502438Y-75261904D01*
X53502438Y-75261904D02*
X53550057Y-75214285D01*
X53550057Y-75214285D02*
X53645295Y-75166666D01*
X53645295Y-75166666D02*
X53788152Y-75166666D01*
X53788152Y-75166666D02*
X53883390Y-75214285D01*
X53883390Y-75214285D02*
X53931009Y-75261904D01*
X53931009Y-75261904D02*
X53978628Y-75357142D01*
X53978628Y-75357142D02*
X53978628Y-75738094D01*
X54454819Y-74690475D02*
X54454819Y-74499999D01*
X54454819Y-74499999D02*
X54407200Y-74404761D01*
X54407200Y-74404761D02*
X54359580Y-74357142D01*
X54359580Y-74357142D02*
X54216723Y-74261904D01*
X54216723Y-74261904D02*
X54026247Y-74214285D01*
X54026247Y-74214285D02*
X53645295Y-74214285D01*
X53645295Y-74214285D02*
X53550057Y-74261904D01*
X53550057Y-74261904D02*
X53502438Y-74309523D01*
X53502438Y-74309523D02*
X53454819Y-74404761D01*
X53454819Y-74404761D02*
X53454819Y-74595237D01*
X53454819Y-74595237D02*
X53502438Y-74690475D01*
X53502438Y-74690475D02*
X53550057Y-74738094D01*
X53550057Y-74738094D02*
X53645295Y-74785713D01*
X53645295Y-74785713D02*
X53883390Y-74785713D01*
X53883390Y-74785713D02*
X53978628Y-74738094D01*
X53978628Y-74738094D02*
X54026247Y-74690475D01*
X54026247Y-74690475D02*
X54073866Y-74595237D01*
X54073866Y-74595237D02*
X54073866Y-74404761D01*
X54073866Y-74404761D02*
X54026247Y-74309523D01*
X54026247Y-74309523D02*
X53978628Y-74261904D01*
X53978628Y-74261904D02*
X53883390Y-74214285D01*
X68454819Y-94041666D02*
X67978628Y-94374999D01*
X68454819Y-94613094D02*
X67454819Y-94613094D01*
X67454819Y-94613094D02*
X67454819Y-94232142D01*
X67454819Y-94232142D02*
X67502438Y-94136904D01*
X67502438Y-94136904D02*
X67550057Y-94089285D01*
X67550057Y-94089285D02*
X67645295Y-94041666D01*
X67645295Y-94041666D02*
X67788152Y-94041666D01*
X67788152Y-94041666D02*
X67883390Y-94089285D01*
X67883390Y-94089285D02*
X67931009Y-94136904D01*
X67931009Y-94136904D02*
X67978628Y-94232142D01*
X67978628Y-94232142D02*
X67978628Y-94613094D01*
X67550057Y-93660713D02*
X67502438Y-93613094D01*
X67502438Y-93613094D02*
X67454819Y-93517856D01*
X67454819Y-93517856D02*
X67454819Y-93279761D01*
X67454819Y-93279761D02*
X67502438Y-93184523D01*
X67502438Y-93184523D02*
X67550057Y-93136904D01*
X67550057Y-93136904D02*
X67645295Y-93089285D01*
X67645295Y-93089285D02*
X67740533Y-93089285D01*
X67740533Y-93089285D02*
X67883390Y-93136904D01*
X67883390Y-93136904D02*
X68454819Y-93708332D01*
X68454819Y-93708332D02*
X68454819Y-93089285D01*
X73454819Y-83166666D02*
X72978628Y-83499999D01*
X73454819Y-83738094D02*
X72454819Y-83738094D01*
X72454819Y-83738094D02*
X72454819Y-83357142D01*
X72454819Y-83357142D02*
X72502438Y-83261904D01*
X72502438Y-83261904D02*
X72550057Y-83214285D01*
X72550057Y-83214285D02*
X72645295Y-83166666D01*
X72645295Y-83166666D02*
X72788152Y-83166666D01*
X72788152Y-83166666D02*
X72883390Y-83214285D01*
X72883390Y-83214285D02*
X72931009Y-83261904D01*
X72931009Y-83261904D02*
X72978628Y-83357142D01*
X72978628Y-83357142D02*
X72978628Y-83738094D01*
X72454819Y-82261904D02*
X72454819Y-82738094D01*
X72454819Y-82738094D02*
X72931009Y-82785713D01*
X72931009Y-82785713D02*
X72883390Y-82738094D01*
X72883390Y-82738094D02*
X72835771Y-82642856D01*
X72835771Y-82642856D02*
X72835771Y-82404761D01*
X72835771Y-82404761D02*
X72883390Y-82309523D01*
X72883390Y-82309523D02*
X72931009Y-82261904D01*
X72931009Y-82261904D02*
X73026247Y-82214285D01*
X73026247Y-82214285D02*
X73264342Y-82214285D01*
X73264342Y-82214285D02*
X73359580Y-82261904D01*
X73359580Y-82261904D02*
X73407200Y-82309523D01*
X73407200Y-82309523D02*
X73454819Y-82404761D01*
X73454819Y-82404761D02*
X73454819Y-82642856D01*
X73454819Y-82642856D02*
X73407200Y-82738094D01*
X73407200Y-82738094D02*
X73359580Y-82785713D01*
X57454819Y-75396428D02*
X56978628Y-75729761D01*
X57454819Y-75967856D02*
X56454819Y-75967856D01*
X56454819Y-75967856D02*
X56454819Y-75586904D01*
X56454819Y-75586904D02*
X56502438Y-75491666D01*
X56502438Y-75491666D02*
X56550057Y-75444047D01*
X56550057Y-75444047D02*
X56645295Y-75396428D01*
X56645295Y-75396428D02*
X56788152Y-75396428D01*
X56788152Y-75396428D02*
X56883390Y-75444047D01*
X56883390Y-75444047D02*
X56931009Y-75491666D01*
X56931009Y-75491666D02*
X56978628Y-75586904D01*
X56978628Y-75586904D02*
X56978628Y-75967856D01*
X57454819Y-74491666D02*
X57454819Y-74967856D01*
X57454819Y-74967856D02*
X56454819Y-74967856D01*
X57454819Y-73634523D02*
X57454819Y-74205951D01*
X57454819Y-73920237D02*
X56454819Y-73920237D01*
X56454819Y-73920237D02*
X56597676Y-74015475D01*
X56597676Y-74015475D02*
X56692914Y-74110713D01*
X56692914Y-74110713D02*
X56740533Y-74205951D01*
X60359580Y-75166666D02*
X60407200Y-75214285D01*
X60407200Y-75214285D02*
X60454819Y-75357142D01*
X60454819Y-75357142D02*
X60454819Y-75452380D01*
X60454819Y-75452380D02*
X60407200Y-75595237D01*
X60407200Y-75595237D02*
X60311961Y-75690475D01*
X60311961Y-75690475D02*
X60216723Y-75738094D01*
X60216723Y-75738094D02*
X60026247Y-75785713D01*
X60026247Y-75785713D02*
X59883390Y-75785713D01*
X59883390Y-75785713D02*
X59692914Y-75738094D01*
X59692914Y-75738094D02*
X59597676Y-75690475D01*
X59597676Y-75690475D02*
X59502438Y-75595237D01*
X59502438Y-75595237D02*
X59454819Y-75452380D01*
X59454819Y-75452380D02*
X59454819Y-75357142D01*
X59454819Y-75357142D02*
X59502438Y-75214285D01*
X59502438Y-75214285D02*
X59550057Y-75166666D01*
X60454819Y-74214285D02*
X60454819Y-74785713D01*
X60454819Y-74499999D02*
X59454819Y-74499999D01*
X59454819Y-74499999D02*
X59597676Y-74595237D01*
X59597676Y-74595237D02*
X59692914Y-74690475D01*
X59692914Y-74690475D02*
X59740533Y-74785713D01*
X67454819Y-83166666D02*
X66978628Y-83499999D01*
X67454819Y-83738094D02*
X66454819Y-83738094D01*
X66454819Y-83738094D02*
X66454819Y-83357142D01*
X66454819Y-83357142D02*
X66502438Y-83261904D01*
X66502438Y-83261904D02*
X66550057Y-83214285D01*
X66550057Y-83214285D02*
X66645295Y-83166666D01*
X66645295Y-83166666D02*
X66788152Y-83166666D01*
X66788152Y-83166666D02*
X66883390Y-83214285D01*
X66883390Y-83214285D02*
X66931009Y-83261904D01*
X66931009Y-83261904D02*
X66978628Y-83357142D01*
X66978628Y-83357142D02*
X66978628Y-83738094D01*
X66454819Y-82309523D02*
X66454819Y-82499999D01*
X66454819Y-82499999D02*
X66502438Y-82595237D01*
X66502438Y-82595237D02*
X66550057Y-82642856D01*
X66550057Y-82642856D02*
X66692914Y-82738094D01*
X66692914Y-82738094D02*
X66883390Y-82785713D01*
X66883390Y-82785713D02*
X67264342Y-82785713D01*
X67264342Y-82785713D02*
X67359580Y-82738094D01*
X67359580Y-82738094D02*
X67407200Y-82690475D01*
X67407200Y-82690475D02*
X67454819Y-82595237D01*
X67454819Y-82595237D02*
X67454819Y-82404761D01*
X67454819Y-82404761D02*
X67407200Y-82309523D01*
X67407200Y-82309523D02*
X67359580Y-82261904D01*
X67359580Y-82261904D02*
X67264342Y-82214285D01*
X67264342Y-82214285D02*
X67026247Y-82214285D01*
X67026247Y-82214285D02*
X66931009Y-82261904D01*
X66931009Y-82261904D02*
X66883390Y-82309523D01*
X66883390Y-82309523D02*
X66835771Y-82404761D01*
X66835771Y-82404761D02*
X66835771Y-82595237D01*
X66835771Y-82595237D02*
X66883390Y-82690475D01*
X66883390Y-82690475D02*
X66931009Y-82738094D01*
X66931009Y-82738094D02*
X67026247Y-82785713D01*
X65454819Y-75166666D02*
X64978628Y-75499999D01*
X65454819Y-75738094D02*
X64454819Y-75738094D01*
X64454819Y-75738094D02*
X64454819Y-75357142D01*
X64454819Y-75357142D02*
X64502438Y-75261904D01*
X64502438Y-75261904D02*
X64550057Y-75214285D01*
X64550057Y-75214285D02*
X64645295Y-75166666D01*
X64645295Y-75166666D02*
X64788152Y-75166666D01*
X64788152Y-75166666D02*
X64883390Y-75214285D01*
X64883390Y-75214285D02*
X64931009Y-75261904D01*
X64931009Y-75261904D02*
X64978628Y-75357142D01*
X64978628Y-75357142D02*
X64978628Y-75738094D01*
X64454819Y-74833332D02*
X64454819Y-74166666D01*
X64454819Y-74166666D02*
X65454819Y-74595237D01*
X51454819Y-75166666D02*
X50978628Y-75499999D01*
X51454819Y-75738094D02*
X50454819Y-75738094D01*
X50454819Y-75738094D02*
X50454819Y-75357142D01*
X50454819Y-75357142D02*
X50502438Y-75261904D01*
X50502438Y-75261904D02*
X50550057Y-75214285D01*
X50550057Y-75214285D02*
X50645295Y-75166666D01*
X50645295Y-75166666D02*
X50788152Y-75166666D01*
X50788152Y-75166666D02*
X50883390Y-75214285D01*
X50883390Y-75214285D02*
X50931009Y-75261904D01*
X50931009Y-75261904D02*
X50978628Y-75357142D01*
X50978628Y-75357142D02*
X50978628Y-75738094D01*
X50883390Y-74595237D02*
X50835771Y-74690475D01*
X50835771Y-74690475D02*
X50788152Y-74738094D01*
X50788152Y-74738094D02*
X50692914Y-74785713D01*
X50692914Y-74785713D02*
X50645295Y-74785713D01*
X50645295Y-74785713D02*
X50550057Y-74738094D01*
X50550057Y-74738094D02*
X50502438Y-74690475D01*
X50502438Y-74690475D02*
X50454819Y-74595237D01*
X50454819Y-74595237D02*
X50454819Y-74404761D01*
X50454819Y-74404761D02*
X50502438Y-74309523D01*
X50502438Y-74309523D02*
X50550057Y-74261904D01*
X50550057Y-74261904D02*
X50645295Y-74214285D01*
X50645295Y-74214285D02*
X50692914Y-74214285D01*
X50692914Y-74214285D02*
X50788152Y-74261904D01*
X50788152Y-74261904D02*
X50835771Y-74309523D01*
X50835771Y-74309523D02*
X50883390Y-74404761D01*
X50883390Y-74404761D02*
X50883390Y-74595237D01*
X50883390Y-74595237D02*
X50931009Y-74690475D01*
X50931009Y-74690475D02*
X50978628Y-74738094D01*
X50978628Y-74738094D02*
X51073866Y-74785713D01*
X51073866Y-74785713D02*
X51264342Y-74785713D01*
X51264342Y-74785713D02*
X51359580Y-74738094D01*
X51359580Y-74738094D02*
X51407200Y-74690475D01*
X51407200Y-74690475D02*
X51454819Y-74595237D01*
X51454819Y-74595237D02*
X51454819Y-74404761D01*
X51454819Y-74404761D02*
X51407200Y-74309523D01*
X51407200Y-74309523D02*
X51359580Y-74261904D01*
X51359580Y-74261904D02*
X51264342Y-74214285D01*
X51264342Y-74214285D02*
X51073866Y-74214285D01*
X51073866Y-74214285D02*
X50978628Y-74261904D01*
X50978628Y-74261904D02*
X50931009Y-74309523D01*
X50931009Y-74309523D02*
X50883390Y-74404761D01*
X71454819Y-94096666D02*
X70978628Y-94429999D01*
X71454819Y-94668094D02*
X70454819Y-94668094D01*
X70454819Y-94668094D02*
X70454819Y-94287142D01*
X70454819Y-94287142D02*
X70502438Y-94191904D01*
X70502438Y-94191904D02*
X70550057Y-94144285D01*
X70550057Y-94144285D02*
X70645295Y-94096666D01*
X70645295Y-94096666D02*
X70788152Y-94096666D01*
X70788152Y-94096666D02*
X70883390Y-94144285D01*
X70883390Y-94144285D02*
X70931009Y-94191904D01*
X70931009Y-94191904D02*
X70978628Y-94287142D01*
X70978628Y-94287142D02*
X70978628Y-94668094D01*
X71454819Y-93144285D02*
X71454819Y-93715713D01*
X71454819Y-93429999D02*
X70454819Y-93429999D01*
X70454819Y-93429999D02*
X70597676Y-93525237D01*
X70597676Y-93525237D02*
X70692914Y-93620475D01*
X70692914Y-93620475D02*
X70740533Y-93715713D01*
X62454819Y-83761904D02*
X63264342Y-83761904D01*
X63264342Y-83761904D02*
X63359580Y-83714285D01*
X63359580Y-83714285D02*
X63407200Y-83666666D01*
X63407200Y-83666666D02*
X63454819Y-83571428D01*
X63454819Y-83571428D02*
X63454819Y-83380952D01*
X63454819Y-83380952D02*
X63407200Y-83285714D01*
X63407200Y-83285714D02*
X63359580Y-83238095D01*
X63359580Y-83238095D02*
X63264342Y-83190476D01*
X63264342Y-83190476D02*
X62454819Y-83190476D01*
X63454819Y-82190476D02*
X63454819Y-82761904D01*
X63454819Y-82476190D02*
X62454819Y-82476190D01*
X62454819Y-82476190D02*
X62597676Y-82571428D01*
X62597676Y-82571428D02*
X62692914Y-82666666D01*
X62692914Y-82666666D02*
X62740533Y-82761904D01*
X69454819Y-86991666D02*
X68978628Y-87324999D01*
X69454819Y-87563094D02*
X68454819Y-87563094D01*
X68454819Y-87563094D02*
X68454819Y-87182142D01*
X68454819Y-87182142D02*
X68502438Y-87086904D01*
X68502438Y-87086904D02*
X68550057Y-87039285D01*
X68550057Y-87039285D02*
X68645295Y-86991666D01*
X68645295Y-86991666D02*
X68788152Y-86991666D01*
X68788152Y-86991666D02*
X68883390Y-87039285D01*
X68883390Y-87039285D02*
X68931009Y-87086904D01*
X68931009Y-87086904D02*
X68978628Y-87182142D01*
X68978628Y-87182142D02*
X68978628Y-87563094D01*
X68788152Y-86134523D02*
X69454819Y-86134523D01*
X68407200Y-86372618D02*
X69121485Y-86610713D01*
X69121485Y-86610713D02*
X69121485Y-85991666D01*
X54454819Y-86525594D02*
X53454819Y-86525594D01*
X53454819Y-86525594D02*
X53454819Y-86287499D01*
X53454819Y-86287499D02*
X53502438Y-86144642D01*
X53502438Y-86144642D02*
X53597676Y-86049404D01*
X53597676Y-86049404D02*
X53692914Y-86001785D01*
X53692914Y-86001785D02*
X53883390Y-85954166D01*
X53883390Y-85954166D02*
X54026247Y-85954166D01*
X54026247Y-85954166D02*
X54216723Y-86001785D01*
X54216723Y-86001785D02*
X54311961Y-86049404D01*
X54311961Y-86049404D02*
X54407200Y-86144642D01*
X54407200Y-86144642D02*
X54454819Y-86287499D01*
X54454819Y-86287499D02*
X54454819Y-86525594D01*
X53550057Y-85573213D02*
X53502438Y-85525594D01*
X53502438Y-85525594D02*
X53454819Y-85430356D01*
X53454819Y-85430356D02*
X53454819Y-85192261D01*
X53454819Y-85192261D02*
X53502438Y-85097023D01*
X53502438Y-85097023D02*
X53550057Y-85049404D01*
X53550057Y-85049404D02*
X53645295Y-85001785D01*
X53645295Y-85001785D02*
X53740533Y-85001785D01*
X53740533Y-85001785D02*
X53883390Y-85049404D01*
X53883390Y-85049404D02*
X54454819Y-85620832D01*
X54454819Y-85620832D02*
X54454819Y-85001785D01*
X57359580Y-95666666D02*
X57407200Y-95714285D01*
X57407200Y-95714285D02*
X57454819Y-95857142D01*
X57454819Y-95857142D02*
X57454819Y-95952380D01*
X57454819Y-95952380D02*
X57407200Y-96095237D01*
X57407200Y-96095237D02*
X57311961Y-96190475D01*
X57311961Y-96190475D02*
X57216723Y-96238094D01*
X57216723Y-96238094D02*
X57026247Y-96285713D01*
X57026247Y-96285713D02*
X56883390Y-96285713D01*
X56883390Y-96285713D02*
X56692914Y-96238094D01*
X56692914Y-96238094D02*
X56597676Y-96190475D01*
X56597676Y-96190475D02*
X56502438Y-96095237D01*
X56502438Y-96095237D02*
X56454819Y-95952380D01*
X56454819Y-95952380D02*
X56454819Y-95857142D01*
X56454819Y-95857142D02*
X56502438Y-95714285D01*
X56502438Y-95714285D02*
X56550057Y-95666666D01*
X57359580Y-94666666D02*
X57407200Y-94714285D01*
X57407200Y-94714285D02*
X57454819Y-94857142D01*
X57454819Y-94857142D02*
X57454819Y-94952380D01*
X57454819Y-94952380D02*
X57407200Y-95095237D01*
X57407200Y-95095237D02*
X57311961Y-95190475D01*
X57311961Y-95190475D02*
X57216723Y-95238094D01*
X57216723Y-95238094D02*
X57026247Y-95285713D01*
X57026247Y-95285713D02*
X56883390Y-95285713D01*
X56883390Y-95285713D02*
X56692914Y-95238094D01*
X56692914Y-95238094D02*
X56597676Y-95190475D01*
X56597676Y-95190475D02*
X56502438Y-95095237D01*
X56502438Y-95095237D02*
X56454819Y-94952380D01*
X56454819Y-94952380D02*
X56454819Y-94857142D01*
X56454819Y-94857142D02*
X56502438Y-94714285D01*
X56502438Y-94714285D02*
X56550057Y-94666666D01*
X56550057Y-94285713D02*
X56502438Y-94238094D01*
X56502438Y-94238094D02*
X56454819Y-94142856D01*
X56454819Y-94142856D02*
X56454819Y-93904761D01*
X56454819Y-93904761D02*
X56502438Y-93809523D01*
X56502438Y-93809523D02*
X56550057Y-93761904D01*
X56550057Y-93761904D02*
X56645295Y-93714285D01*
X56645295Y-93714285D02*
X56740533Y-93714285D01*
X56740533Y-93714285D02*
X56883390Y-93761904D01*
X56883390Y-93761904D02*
X57454819Y-94333332D01*
X57454819Y-94333332D02*
X57454819Y-93714285D01*
X65454819Y-94216666D02*
X64978628Y-94549999D01*
X65454819Y-94788094D02*
X64454819Y-94788094D01*
X64454819Y-94788094D02*
X64454819Y-94407142D01*
X64454819Y-94407142D02*
X64502438Y-94311904D01*
X64502438Y-94311904D02*
X64550057Y-94264285D01*
X64550057Y-94264285D02*
X64645295Y-94216666D01*
X64645295Y-94216666D02*
X64788152Y-94216666D01*
X64788152Y-94216666D02*
X64883390Y-94264285D01*
X64883390Y-94264285D02*
X64931009Y-94311904D01*
X64931009Y-94311904D02*
X64978628Y-94407142D01*
X64978628Y-94407142D02*
X64978628Y-94788094D01*
X64454819Y-93883332D02*
X64454819Y-93264285D01*
X64454819Y-93264285D02*
X64835771Y-93597618D01*
X64835771Y-93597618D02*
X64835771Y-93454761D01*
X64835771Y-93454761D02*
X64883390Y-93359523D01*
X64883390Y-93359523D02*
X64931009Y-93311904D01*
X64931009Y-93311904D02*
X65026247Y-93264285D01*
X65026247Y-93264285D02*
X65264342Y-93264285D01*
X65264342Y-93264285D02*
X65359580Y-93311904D01*
X65359580Y-93311904D02*
X65407200Y-93359523D01*
X65407200Y-93359523D02*
X65454819Y-93454761D01*
X65454819Y-93454761D02*
X65454819Y-93740475D01*
X65454819Y-93740475D02*
X65407200Y-93835713D01*
X65407200Y-93835713D02*
X65359580Y-93883332D01*
X61359580Y-95666666D02*
X61407200Y-95714285D01*
X61407200Y-95714285D02*
X61454819Y-95857142D01*
X61454819Y-95857142D02*
X61454819Y-95952380D01*
X61454819Y-95952380D02*
X61407200Y-96095237D01*
X61407200Y-96095237D02*
X61311961Y-96190475D01*
X61311961Y-96190475D02*
X61216723Y-96238094D01*
X61216723Y-96238094D02*
X61026247Y-96285713D01*
X61026247Y-96285713D02*
X60883390Y-96285713D01*
X60883390Y-96285713D02*
X60692914Y-96238094D01*
X60692914Y-96238094D02*
X60597676Y-96190475D01*
X60597676Y-96190475D02*
X60502438Y-96095237D01*
X60502438Y-96095237D02*
X60454819Y-95952380D01*
X60454819Y-95952380D02*
X60454819Y-95857142D01*
X60454819Y-95857142D02*
X60502438Y-95714285D01*
X60502438Y-95714285D02*
X60550057Y-95666666D01*
X61359580Y-94666666D02*
X61407200Y-94714285D01*
X61407200Y-94714285D02*
X61454819Y-94857142D01*
X61454819Y-94857142D02*
X61454819Y-94952380D01*
X61454819Y-94952380D02*
X61407200Y-95095237D01*
X61407200Y-95095237D02*
X61311961Y-95190475D01*
X61311961Y-95190475D02*
X61216723Y-95238094D01*
X61216723Y-95238094D02*
X61026247Y-95285713D01*
X61026247Y-95285713D02*
X60883390Y-95285713D01*
X60883390Y-95285713D02*
X60692914Y-95238094D01*
X60692914Y-95238094D02*
X60597676Y-95190475D01*
X60597676Y-95190475D02*
X60502438Y-95095237D01*
X60502438Y-95095237D02*
X60454819Y-94952380D01*
X60454819Y-94952380D02*
X60454819Y-94857142D01*
X60454819Y-94857142D02*
X60502438Y-94714285D01*
X60502438Y-94714285D02*
X60550057Y-94666666D01*
X61454819Y-93714285D02*
X61454819Y-94285713D01*
X61454819Y-93999999D02*
X60454819Y-93999999D01*
X60454819Y-93999999D02*
X60597676Y-94095237D01*
X60597676Y-94095237D02*
X60692914Y-94190475D01*
X60692914Y-94190475D02*
X60740533Y-94285713D01*
X51454819Y-86525594D02*
X50454819Y-86525594D01*
X50454819Y-86525594D02*
X50454819Y-86287499D01*
X50454819Y-86287499D02*
X50502438Y-86144642D01*
X50502438Y-86144642D02*
X50597676Y-86049404D01*
X50597676Y-86049404D02*
X50692914Y-86001785D01*
X50692914Y-86001785D02*
X50883390Y-85954166D01*
X50883390Y-85954166D02*
X51026247Y-85954166D01*
X51026247Y-85954166D02*
X51216723Y-86001785D01*
X51216723Y-86001785D02*
X51311961Y-86049404D01*
X51311961Y-86049404D02*
X51407200Y-86144642D01*
X51407200Y-86144642D02*
X51454819Y-86287499D01*
X51454819Y-86287499D02*
X51454819Y-86525594D01*
X51454819Y-85001785D02*
X51454819Y-85573213D01*
X51454819Y-85287499D02*
X50454819Y-85287499D01*
X50454819Y-85287499D02*
X50597676Y-85382737D01*
X50597676Y-85382737D02*
X50692914Y-85477975D01*
X50692914Y-85477975D02*
X50740533Y-85573213D01*
D12*
%TO.C,R9*%
X53477500Y-78237258D02*
X53477500Y-77762742D01*
X54522500Y-78237258D02*
X54522500Y-77762742D01*
%TO.C,R2*%
X67477500Y-91287258D02*
X67477500Y-90812742D01*
X68522500Y-91287258D02*
X68522500Y-90812742D01*
%TO.C,R5*%
X70477500Y-83237258D02*
X70477500Y-82762742D01*
X71522500Y-83237258D02*
X71522500Y-82762742D01*
%TO.C,RL1*%
X56477500Y-77762742D02*
X56477500Y-78237258D01*
X57522500Y-77762742D02*
X57522500Y-78237258D01*
%TO.C,C1*%
X59490000Y-78365580D02*
X59490000Y-78084420D01*
X60510000Y-78365580D02*
X60510000Y-78084420D01*
%TO.C,R6*%
X64477500Y-83237258D02*
X64477500Y-82762742D01*
X65522500Y-83237258D02*
X65522500Y-82762742D01*
%TO.C,R7*%
X64477500Y-78237258D02*
X64477500Y-77762742D01*
X65522500Y-78237258D02*
X65522500Y-77762742D01*
%TO.C,R8*%
X50477500Y-77762742D02*
X50477500Y-78237258D01*
X51522500Y-77762742D02*
X51522500Y-78237258D01*
%TO.C,R1*%
X70477500Y-91287258D02*
X70477500Y-90812742D01*
X71522500Y-91287258D02*
X71522500Y-90812742D01*
%TO.C,U1*%
X56440000Y-85000000D02*
X56440000Y-83050000D01*
X56440000Y-85000000D02*
X56440000Y-86950000D01*
X61560000Y-85000000D02*
X61560000Y-83050000D01*
X61560000Y-85000000D02*
X61560000Y-86950000D01*
X61795000Y-82540000D02*
X61465000Y-82300000D01*
X61795000Y-82060000D01*
X61795000Y-82540000D01*
G36*
X61795000Y-82540000D02*
G01*
X61465000Y-82300000D01*
X61795000Y-82060000D01*
X61795000Y-82540000D01*
G37*
%TO.C,R4*%
X65762742Y-86302500D02*
X66237258Y-86302500D01*
X65762742Y-87347500D02*
X66237258Y-87347500D01*
%TO.C,D2*%
X53265000Y-81515000D02*
X53265000Y-83800000D01*
X54735000Y-81515000D02*
X53265000Y-81515000D01*
X54735000Y-83800000D02*
X54735000Y-81515000D01*
%TO.C,CC2*%
X56490000Y-90859420D02*
X56490000Y-91140580D01*
X57510000Y-90859420D02*
X57510000Y-91140580D01*
%TO.C,R3*%
X64477500Y-91287258D02*
X64477500Y-90812742D01*
X65522500Y-91287258D02*
X65522500Y-90812742D01*
%TO.C,CC1*%
X60490000Y-90859420D02*
X60490000Y-91140580D01*
X61510000Y-90859420D02*
X61510000Y-91140580D01*
%TO.C,D1*%
X50265000Y-82200000D02*
X50265000Y-84485000D01*
X50265000Y-84485000D02*
X51735000Y-84485000D01*
X51735000Y-84485000D02*
X51735000Y-82200000D01*
%TD*%
M02*
