%TF.GenerationSoftware,KiCad,Pcbnew,8.0.3*%
%TF.CreationDate,2025-04-22T23:10:12+03:00*%
%TF.ProjectId,mihai555,6d696861-6935-4353-952e-6b696361645f,rev?*%
%TF.SameCoordinates,Original*%
%TF.FileFunction,Legend,Bot*%
%TF.FilePolarity,Positive*%
%FSLAX46Y46*%
G04 Gerber Fmt 4.6, Leading zero omitted, Abs format (unit mm)*
G04 Created by KiCad (PCBNEW 8.0.3) date 2025-04-22 23:10:12*
%MOMM*%
%LPD*%
G01*
G04 APERTURE LIST*
%ADD10C,0.150000*%
G04 APERTURE END LIST*
D10*
X73329887Y-93426121D02*
X73663220Y-93426121D01*
X73663220Y-93949931D02*
X73663220Y-92949931D01*
X73663220Y-92949931D02*
X73187030Y-92949931D01*
X72663220Y-93949931D02*
X72758458Y-93902312D01*
X72758458Y-93902312D02*
X72806077Y-93854692D01*
X72806077Y-93854692D02*
X72853696Y-93759454D01*
X72853696Y-93759454D02*
X72853696Y-93473740D01*
X72853696Y-93473740D02*
X72806077Y-93378502D01*
X72806077Y-93378502D02*
X72758458Y-93330883D01*
X72758458Y-93330883D02*
X72663220Y-93283264D01*
X72663220Y-93283264D02*
X72520363Y-93283264D01*
X72520363Y-93283264D02*
X72425125Y-93330883D01*
X72425125Y-93330883D02*
X72377506Y-93378502D01*
X72377506Y-93378502D02*
X72329887Y-93473740D01*
X72329887Y-93473740D02*
X72329887Y-93759454D01*
X72329887Y-93759454D02*
X72377506Y-93854692D01*
X72377506Y-93854692D02*
X72425125Y-93902312D01*
X72425125Y-93902312D02*
X72520363Y-93949931D01*
X72520363Y-93949931D02*
X72663220Y-93949931D01*
X71901315Y-93949931D02*
X71901315Y-93283264D01*
X71901315Y-93473740D02*
X71853696Y-93378502D01*
X71853696Y-93378502D02*
X71806077Y-93330883D01*
X71806077Y-93330883D02*
X71710839Y-93283264D01*
X71710839Y-93283264D02*
X71615601Y-93283264D01*
X70520362Y-93949931D02*
X70520362Y-92949931D01*
X70520362Y-92949931D02*
X70187029Y-93664216D01*
X70187029Y-93664216D02*
X69853696Y-92949931D01*
X69853696Y-92949931D02*
X69853696Y-93949931D01*
X69377505Y-93949931D02*
X69377505Y-93283264D01*
X69377505Y-92949931D02*
X69425124Y-92997550D01*
X69425124Y-92997550D02*
X69377505Y-93045169D01*
X69377505Y-93045169D02*
X69329886Y-92997550D01*
X69329886Y-92997550D02*
X69377505Y-92949931D01*
X69377505Y-92949931D02*
X69377505Y-93045169D01*
X68901315Y-93949931D02*
X68901315Y-92949931D01*
X68472744Y-93949931D02*
X68472744Y-93426121D01*
X68472744Y-93426121D02*
X68520363Y-93330883D01*
X68520363Y-93330883D02*
X68615601Y-93283264D01*
X68615601Y-93283264D02*
X68758458Y-93283264D01*
X68758458Y-93283264D02*
X68853696Y-93330883D01*
X68853696Y-93330883D02*
X68901315Y-93378502D01*
X67567982Y-93949931D02*
X67567982Y-93426121D01*
X67567982Y-93426121D02*
X67615601Y-93330883D01*
X67615601Y-93330883D02*
X67710839Y-93283264D01*
X67710839Y-93283264D02*
X67901315Y-93283264D01*
X67901315Y-93283264D02*
X67996553Y-93330883D01*
X67567982Y-93902312D02*
X67663220Y-93949931D01*
X67663220Y-93949931D02*
X67901315Y-93949931D01*
X67901315Y-93949931D02*
X67996553Y-93902312D01*
X67996553Y-93902312D02*
X68044172Y-93807073D01*
X68044172Y-93807073D02*
X68044172Y-93711835D01*
X68044172Y-93711835D02*
X67996553Y-93616597D01*
X67996553Y-93616597D02*
X67901315Y-93568978D01*
X67901315Y-93568978D02*
X67663220Y-93568978D01*
X67663220Y-93568978D02*
X67567982Y-93521359D01*
X67091791Y-93949931D02*
X67091791Y-93283264D01*
X67091791Y-92949931D02*
X67139410Y-92997550D01*
X67139410Y-92997550D02*
X67091791Y-93045169D01*
X67091791Y-93045169D02*
X67044172Y-92997550D01*
X67044172Y-92997550D02*
X67091791Y-92949931D01*
X67091791Y-92949931D02*
X67091791Y-93045169D01*
X65853696Y-93949931D02*
X65853696Y-92949931D01*
X65853696Y-92949931D02*
X65472744Y-92949931D01*
X65472744Y-92949931D02*
X65377506Y-92997550D01*
X65377506Y-92997550D02*
X65329887Y-93045169D01*
X65329887Y-93045169D02*
X65282268Y-93140407D01*
X65282268Y-93140407D02*
X65282268Y-93283264D01*
X65282268Y-93283264D02*
X65329887Y-93378502D01*
X65329887Y-93378502D02*
X65377506Y-93426121D01*
X65377506Y-93426121D02*
X65472744Y-93473740D01*
X65472744Y-93473740D02*
X65853696Y-93473740D01*
X64425125Y-93283264D02*
X64425125Y-93949931D01*
X64853696Y-93283264D02*
X64853696Y-93807073D01*
X64853696Y-93807073D02*
X64806077Y-93902312D01*
X64806077Y-93902312D02*
X64710839Y-93949931D01*
X64710839Y-93949931D02*
X64567982Y-93949931D01*
X64567982Y-93949931D02*
X64472744Y-93902312D01*
X64472744Y-93902312D02*
X64425125Y-93854692D01*
X63948934Y-93283264D02*
X63948934Y-94283264D01*
X63948934Y-93330883D02*
X63853696Y-93283264D01*
X63853696Y-93283264D02*
X63663220Y-93283264D01*
X63663220Y-93283264D02*
X63567982Y-93330883D01*
X63567982Y-93330883D02*
X63520363Y-93378502D01*
X63520363Y-93378502D02*
X63472744Y-93473740D01*
X63472744Y-93473740D02*
X63472744Y-93759454D01*
X63472744Y-93759454D02*
X63520363Y-93854692D01*
X63520363Y-93854692D02*
X63567982Y-93902312D01*
X63567982Y-93902312D02*
X63663220Y-93949931D01*
X63663220Y-93949931D02*
X63853696Y-93949931D01*
X63853696Y-93949931D02*
X63948934Y-93902312D01*
X62615601Y-93949931D02*
X62615601Y-93426121D01*
X62615601Y-93426121D02*
X62663220Y-93330883D01*
X62663220Y-93330883D02*
X62758458Y-93283264D01*
X62758458Y-93283264D02*
X62948934Y-93283264D01*
X62948934Y-93283264D02*
X63044172Y-93330883D01*
X62615601Y-93902312D02*
X62710839Y-93949931D01*
X62710839Y-93949931D02*
X62948934Y-93949931D01*
X62948934Y-93949931D02*
X63044172Y-93902312D01*
X63044172Y-93902312D02*
X63091791Y-93807073D01*
X63091791Y-93807073D02*
X63091791Y-93711835D01*
X63091791Y-93711835D02*
X63044172Y-93616597D01*
X63044172Y-93616597D02*
X62948934Y-93568978D01*
X62948934Y-93568978D02*
X62710839Y-93568978D01*
X62710839Y-93568978D02*
X62615601Y-93521359D01*
X62234648Y-93283264D02*
X61710839Y-93283264D01*
X61710839Y-93283264D02*
X62234648Y-93949931D01*
X62234648Y-93949931D02*
X61710839Y-93949931D01*
X60901315Y-93949931D02*
X60901315Y-93426121D01*
X60901315Y-93426121D02*
X60948934Y-93330883D01*
X60948934Y-93330883D02*
X61044172Y-93283264D01*
X61044172Y-93283264D02*
X61234648Y-93283264D01*
X61234648Y-93283264D02*
X61329886Y-93330883D01*
X60901315Y-93902312D02*
X60996553Y-93949931D01*
X60996553Y-93949931D02*
X61234648Y-93949931D01*
X61234648Y-93949931D02*
X61329886Y-93902312D01*
X61329886Y-93902312D02*
X61377505Y-93807073D01*
X61377505Y-93807073D02*
X61377505Y-93711835D01*
X61377505Y-93711835D02*
X61329886Y-93616597D01*
X61329886Y-93616597D02*
X61234648Y-93568978D01*
X61234648Y-93568978D02*
X60996553Y-93568978D01*
X60996553Y-93568978D02*
X60901315Y-93521359D01*
X60425124Y-93854692D02*
X60377505Y-93902312D01*
X60377505Y-93902312D02*
X60425124Y-93949931D01*
X60425124Y-93949931D02*
X60472743Y-93902312D01*
X60472743Y-93902312D02*
X60425124Y-93854692D01*
X60425124Y-93854692D02*
X60425124Y-93949931D01*
X60425124Y-93330883D02*
X60377505Y-93378502D01*
X60377505Y-93378502D02*
X60425124Y-93426121D01*
X60425124Y-93426121D02*
X60472743Y-93378502D01*
X60472743Y-93378502D02*
X60425124Y-93330883D01*
X60425124Y-93330883D02*
X60425124Y-93426121D01*
X73710839Y-94559875D02*
X73710839Y-94750351D01*
X73329887Y-94559875D02*
X73329887Y-94750351D01*
X73044172Y-94559875D02*
X72472744Y-94559875D01*
X72758458Y-95559875D02*
X72758458Y-94559875D01*
X72139410Y-95559875D02*
X72139410Y-94559875D01*
X71710839Y-95559875D02*
X71710839Y-95036065D01*
X71710839Y-95036065D02*
X71758458Y-94940827D01*
X71758458Y-94940827D02*
X71853696Y-94893208D01*
X71853696Y-94893208D02*
X71996553Y-94893208D01*
X71996553Y-94893208D02*
X72091791Y-94940827D01*
X72091791Y-94940827D02*
X72139410Y-94988446D01*
X70853696Y-95512256D02*
X70948934Y-95559875D01*
X70948934Y-95559875D02*
X71139410Y-95559875D01*
X71139410Y-95559875D02*
X71234648Y-95512256D01*
X71234648Y-95512256D02*
X71282267Y-95417017D01*
X71282267Y-95417017D02*
X71282267Y-95036065D01*
X71282267Y-95036065D02*
X71234648Y-94940827D01*
X71234648Y-94940827D02*
X71139410Y-94893208D01*
X71139410Y-94893208D02*
X70948934Y-94893208D01*
X70948934Y-94893208D02*
X70853696Y-94940827D01*
X70853696Y-94940827D02*
X70806077Y-95036065D01*
X70806077Y-95036065D02*
X70806077Y-95131303D01*
X70806077Y-95131303D02*
X71282267Y-95226541D01*
X69234648Y-95512256D02*
X69329886Y-95559875D01*
X69329886Y-95559875D02*
X69520362Y-95559875D01*
X69520362Y-95559875D02*
X69615600Y-95512256D01*
X69615600Y-95512256D02*
X69663219Y-95417017D01*
X69663219Y-95417017D02*
X69663219Y-95036065D01*
X69663219Y-95036065D02*
X69615600Y-94940827D01*
X69615600Y-94940827D02*
X69520362Y-94893208D01*
X69520362Y-94893208D02*
X69329886Y-94893208D01*
X69329886Y-94893208D02*
X69234648Y-94940827D01*
X69234648Y-94940827D02*
X69187029Y-95036065D01*
X69187029Y-95036065D02*
X69187029Y-95131303D01*
X69187029Y-95131303D02*
X69663219Y-95226541D01*
X68758457Y-94893208D02*
X68758457Y-95559875D01*
X68758457Y-94988446D02*
X68710838Y-94940827D01*
X68710838Y-94940827D02*
X68615600Y-94893208D01*
X68615600Y-94893208D02*
X68472743Y-94893208D01*
X68472743Y-94893208D02*
X68377505Y-94940827D01*
X68377505Y-94940827D02*
X68329886Y-95036065D01*
X68329886Y-95036065D02*
X68329886Y-95559875D01*
X67425124Y-94893208D02*
X67425124Y-95702732D01*
X67425124Y-95702732D02*
X67472743Y-95797970D01*
X67472743Y-95797970D02*
X67520362Y-95845589D01*
X67520362Y-95845589D02*
X67615600Y-95893208D01*
X67615600Y-95893208D02*
X67758457Y-95893208D01*
X67758457Y-95893208D02*
X67853695Y-95845589D01*
X67425124Y-95512256D02*
X67520362Y-95559875D01*
X67520362Y-95559875D02*
X67710838Y-95559875D01*
X67710838Y-95559875D02*
X67806076Y-95512256D01*
X67806076Y-95512256D02*
X67853695Y-95464636D01*
X67853695Y-95464636D02*
X67901314Y-95369398D01*
X67901314Y-95369398D02*
X67901314Y-95083684D01*
X67901314Y-95083684D02*
X67853695Y-94988446D01*
X67853695Y-94988446D02*
X67806076Y-94940827D01*
X67806076Y-94940827D02*
X67710838Y-94893208D01*
X67710838Y-94893208D02*
X67520362Y-94893208D01*
X67520362Y-94893208D02*
X67425124Y-94940827D01*
X66948933Y-95559875D02*
X66948933Y-94893208D01*
X66948933Y-94559875D02*
X66996552Y-94607494D01*
X66996552Y-94607494D02*
X66948933Y-94655113D01*
X66948933Y-94655113D02*
X66901314Y-94607494D01*
X66901314Y-94607494D02*
X66948933Y-94559875D01*
X66948933Y-94559875D02*
X66948933Y-94655113D01*
X66472743Y-94893208D02*
X66472743Y-95559875D01*
X66472743Y-94988446D02*
X66425124Y-94940827D01*
X66425124Y-94940827D02*
X66329886Y-94893208D01*
X66329886Y-94893208D02*
X66187029Y-94893208D01*
X66187029Y-94893208D02*
X66091791Y-94940827D01*
X66091791Y-94940827D02*
X66044172Y-95036065D01*
X66044172Y-95036065D02*
X66044172Y-95559875D01*
X65187029Y-95512256D02*
X65282267Y-95559875D01*
X65282267Y-95559875D02*
X65472743Y-95559875D01*
X65472743Y-95559875D02*
X65567981Y-95512256D01*
X65567981Y-95512256D02*
X65615600Y-95417017D01*
X65615600Y-95417017D02*
X65615600Y-95036065D01*
X65615600Y-95036065D02*
X65567981Y-94940827D01*
X65567981Y-94940827D02*
X65472743Y-94893208D01*
X65472743Y-94893208D02*
X65282267Y-94893208D01*
X65282267Y-94893208D02*
X65187029Y-94940827D01*
X65187029Y-94940827D02*
X65139410Y-95036065D01*
X65139410Y-95036065D02*
X65139410Y-95131303D01*
X65139410Y-95131303D02*
X65615600Y-95226541D01*
X64329886Y-95512256D02*
X64425124Y-95559875D01*
X64425124Y-95559875D02*
X64615600Y-95559875D01*
X64615600Y-95559875D02*
X64710838Y-95512256D01*
X64710838Y-95512256D02*
X64758457Y-95417017D01*
X64758457Y-95417017D02*
X64758457Y-95036065D01*
X64758457Y-95036065D02*
X64710838Y-94940827D01*
X64710838Y-94940827D02*
X64615600Y-94893208D01*
X64615600Y-94893208D02*
X64425124Y-94893208D01*
X64425124Y-94893208D02*
X64329886Y-94940827D01*
X64329886Y-94940827D02*
X64282267Y-95036065D01*
X64282267Y-95036065D02*
X64282267Y-95131303D01*
X64282267Y-95131303D02*
X64758457Y-95226541D01*
X63853695Y-95559875D02*
X63853695Y-94893208D01*
X63853695Y-95083684D02*
X63806076Y-94988446D01*
X63806076Y-94988446D02*
X63758457Y-94940827D01*
X63758457Y-94940827D02*
X63663219Y-94893208D01*
X63663219Y-94893208D02*
X63567981Y-94893208D01*
X62472742Y-95559875D02*
X62472742Y-94559875D01*
X62044171Y-95559875D02*
X62044171Y-95036065D01*
X62044171Y-95036065D02*
X62091790Y-94940827D01*
X62091790Y-94940827D02*
X62187028Y-94893208D01*
X62187028Y-94893208D02*
X62329885Y-94893208D01*
X62329885Y-94893208D02*
X62425123Y-94940827D01*
X62425123Y-94940827D02*
X62472742Y-94988446D01*
X61139409Y-95559875D02*
X61139409Y-95036065D01*
X61139409Y-95036065D02*
X61187028Y-94940827D01*
X61187028Y-94940827D02*
X61282266Y-94893208D01*
X61282266Y-94893208D02*
X61472742Y-94893208D01*
X61472742Y-94893208D02*
X61567980Y-94940827D01*
X61139409Y-95512256D02*
X61234647Y-95559875D01*
X61234647Y-95559875D02*
X61472742Y-95559875D01*
X61472742Y-95559875D02*
X61567980Y-95512256D01*
X61567980Y-95512256D02*
X61615599Y-95417017D01*
X61615599Y-95417017D02*
X61615599Y-95321779D01*
X61615599Y-95321779D02*
X61567980Y-95226541D01*
X61567980Y-95226541D02*
X61472742Y-95178922D01*
X61472742Y-95178922D02*
X61234647Y-95178922D01*
X61234647Y-95178922D02*
X61139409Y-95131303D01*
X60710837Y-95512256D02*
X60615599Y-95559875D01*
X60615599Y-95559875D02*
X60425123Y-95559875D01*
X60425123Y-95559875D02*
X60329885Y-95512256D01*
X60329885Y-95512256D02*
X60282266Y-95417017D01*
X60282266Y-95417017D02*
X60282266Y-95369398D01*
X60282266Y-95369398D02*
X60329885Y-95274160D01*
X60329885Y-95274160D02*
X60425123Y-95226541D01*
X60425123Y-95226541D02*
X60567980Y-95226541D01*
X60567980Y-95226541D02*
X60663218Y-95178922D01*
X60663218Y-95178922D02*
X60710837Y-95083684D01*
X60710837Y-95083684D02*
X60710837Y-95036065D01*
X60710837Y-95036065D02*
X60663218Y-94940827D01*
X60663218Y-94940827D02*
X60567980Y-94893208D01*
X60567980Y-94893208D02*
X60425123Y-94893208D01*
X60425123Y-94893208D02*
X60329885Y-94940827D01*
X59091789Y-95559875D02*
X59091789Y-94559875D01*
X59091789Y-94940827D02*
X58996551Y-94893208D01*
X58996551Y-94893208D02*
X58806075Y-94893208D01*
X58806075Y-94893208D02*
X58710837Y-94940827D01*
X58710837Y-94940827D02*
X58663218Y-94988446D01*
X58663218Y-94988446D02*
X58615599Y-95083684D01*
X58615599Y-95083684D02*
X58615599Y-95369398D01*
X58615599Y-95369398D02*
X58663218Y-95464636D01*
X58663218Y-95464636D02*
X58710837Y-95512256D01*
X58710837Y-95512256D02*
X58806075Y-95559875D01*
X58806075Y-95559875D02*
X58996551Y-95559875D01*
X58996551Y-95559875D02*
X59091789Y-95512256D01*
X57806075Y-95512256D02*
X57901313Y-95559875D01*
X57901313Y-95559875D02*
X58091789Y-95559875D01*
X58091789Y-95559875D02*
X58187027Y-95512256D01*
X58187027Y-95512256D02*
X58234646Y-95417017D01*
X58234646Y-95417017D02*
X58234646Y-95036065D01*
X58234646Y-95036065D02*
X58187027Y-94940827D01*
X58187027Y-94940827D02*
X58091789Y-94893208D01*
X58091789Y-94893208D02*
X57901313Y-94893208D01*
X57901313Y-94893208D02*
X57806075Y-94940827D01*
X57806075Y-94940827D02*
X57758456Y-95036065D01*
X57758456Y-95036065D02*
X57758456Y-95131303D01*
X57758456Y-95131303D02*
X58234646Y-95226541D01*
X56948932Y-95512256D02*
X57044170Y-95559875D01*
X57044170Y-95559875D02*
X57234646Y-95559875D01*
X57234646Y-95559875D02*
X57329884Y-95512256D01*
X57329884Y-95512256D02*
X57377503Y-95417017D01*
X57377503Y-95417017D02*
X57377503Y-95036065D01*
X57377503Y-95036065D02*
X57329884Y-94940827D01*
X57329884Y-94940827D02*
X57234646Y-94893208D01*
X57234646Y-94893208D02*
X57044170Y-94893208D01*
X57044170Y-94893208D02*
X56948932Y-94940827D01*
X56948932Y-94940827D02*
X56901313Y-95036065D01*
X56901313Y-95036065D02*
X56901313Y-95131303D01*
X56901313Y-95131303D02*
X57377503Y-95226541D01*
X56472741Y-94893208D02*
X56472741Y-95559875D01*
X56472741Y-94988446D02*
X56425122Y-94940827D01*
X56425122Y-94940827D02*
X56329884Y-94893208D01*
X56329884Y-94893208D02*
X56187027Y-94893208D01*
X56187027Y-94893208D02*
X56091789Y-94940827D01*
X56091789Y-94940827D02*
X56044170Y-95036065D01*
X56044170Y-95036065D02*
X56044170Y-95559875D01*
X55520360Y-95512256D02*
X55520360Y-95559875D01*
X55520360Y-95559875D02*
X55567979Y-95655113D01*
X55567979Y-95655113D02*
X55615598Y-95702732D01*
X73234649Y-97169819D02*
X73234649Y-96646009D01*
X73234649Y-96646009D02*
X73282268Y-96550771D01*
X73282268Y-96550771D02*
X73377506Y-96503152D01*
X73377506Y-96503152D02*
X73567982Y-96503152D01*
X73567982Y-96503152D02*
X73663220Y-96550771D01*
X73234649Y-97122200D02*
X73329887Y-97169819D01*
X73329887Y-97169819D02*
X73567982Y-97169819D01*
X73567982Y-97169819D02*
X73663220Y-97122200D01*
X73663220Y-97122200D02*
X73710839Y-97026961D01*
X73710839Y-97026961D02*
X73710839Y-96931723D01*
X73710839Y-96931723D02*
X73663220Y-96836485D01*
X73663220Y-96836485D02*
X73567982Y-96788866D01*
X73567982Y-96788866D02*
X73329887Y-96788866D01*
X73329887Y-96788866D02*
X73234649Y-96741247D01*
X72758458Y-96503152D02*
X72758458Y-97169819D01*
X72758458Y-96598390D02*
X72710839Y-96550771D01*
X72710839Y-96550771D02*
X72615601Y-96503152D01*
X72615601Y-96503152D02*
X72472744Y-96503152D01*
X72472744Y-96503152D02*
X72377506Y-96550771D01*
X72377506Y-96550771D02*
X72329887Y-96646009D01*
X72329887Y-96646009D02*
X72329887Y-97169819D01*
X71425125Y-97169819D02*
X71425125Y-96169819D01*
X71425125Y-97122200D02*
X71520363Y-97169819D01*
X71520363Y-97169819D02*
X71710839Y-97169819D01*
X71710839Y-97169819D02*
X71806077Y-97122200D01*
X71806077Y-97122200D02*
X71853696Y-97074580D01*
X71853696Y-97074580D02*
X71901315Y-96979342D01*
X71901315Y-96979342D02*
X71901315Y-96693628D01*
X71901315Y-96693628D02*
X71853696Y-96598390D01*
X71853696Y-96598390D02*
X71806077Y-96550771D01*
X71806077Y-96550771D02*
X71710839Y-96503152D01*
X71710839Y-96503152D02*
X71520363Y-96503152D01*
X71520363Y-96503152D02*
X71425125Y-96550771D01*
X70187029Y-97169819D02*
X70187029Y-96503152D01*
X70187029Y-96169819D02*
X70234648Y-96217438D01*
X70234648Y-96217438D02*
X70187029Y-96265057D01*
X70187029Y-96265057D02*
X70139410Y-96217438D01*
X70139410Y-96217438D02*
X70187029Y-96169819D01*
X70187029Y-96169819D02*
X70187029Y-96265057D01*
X69758458Y-97122200D02*
X69663220Y-97169819D01*
X69663220Y-97169819D02*
X69472744Y-97169819D01*
X69472744Y-97169819D02*
X69377506Y-97122200D01*
X69377506Y-97122200D02*
X69329887Y-97026961D01*
X69329887Y-97026961D02*
X69329887Y-96979342D01*
X69329887Y-96979342D02*
X69377506Y-96884104D01*
X69377506Y-96884104D02*
X69472744Y-96836485D01*
X69472744Y-96836485D02*
X69615601Y-96836485D01*
X69615601Y-96836485D02*
X69710839Y-96788866D01*
X69710839Y-96788866D02*
X69758458Y-96693628D01*
X69758458Y-96693628D02*
X69758458Y-96646009D01*
X69758458Y-96646009D02*
X69710839Y-96550771D01*
X69710839Y-96550771D02*
X69615601Y-96503152D01*
X69615601Y-96503152D02*
X69472744Y-96503152D01*
X69472744Y-96503152D02*
X69377506Y-96550771D01*
X68853696Y-97122200D02*
X68853696Y-97169819D01*
X68853696Y-97169819D02*
X68901315Y-97265057D01*
X68901315Y-97265057D02*
X68948934Y-97312676D01*
X67234649Y-97169819D02*
X67234649Y-96646009D01*
X67234649Y-96646009D02*
X67282268Y-96550771D01*
X67282268Y-96550771D02*
X67377506Y-96503152D01*
X67377506Y-96503152D02*
X67567982Y-96503152D01*
X67567982Y-96503152D02*
X67663220Y-96550771D01*
X67234649Y-97122200D02*
X67329887Y-97169819D01*
X67329887Y-97169819D02*
X67567982Y-97169819D01*
X67567982Y-97169819D02*
X67663220Y-97122200D01*
X67663220Y-97122200D02*
X67710839Y-97026961D01*
X67710839Y-97026961D02*
X67710839Y-96931723D01*
X67710839Y-96931723D02*
X67663220Y-96836485D01*
X67663220Y-96836485D02*
X67567982Y-96788866D01*
X67567982Y-96788866D02*
X67329887Y-96788866D01*
X67329887Y-96788866D02*
X67234649Y-96741247D01*
X65996553Y-97169819D02*
X65996553Y-96503152D01*
X65996553Y-96598390D02*
X65948934Y-96550771D01*
X65948934Y-96550771D02*
X65853696Y-96503152D01*
X65853696Y-96503152D02*
X65710839Y-96503152D01*
X65710839Y-96503152D02*
X65615601Y-96550771D01*
X65615601Y-96550771D02*
X65567982Y-96646009D01*
X65567982Y-96646009D02*
X65567982Y-97169819D01*
X65567982Y-96646009D02*
X65520363Y-96550771D01*
X65520363Y-96550771D02*
X65425125Y-96503152D01*
X65425125Y-96503152D02*
X65282268Y-96503152D01*
X65282268Y-96503152D02*
X65187029Y-96550771D01*
X65187029Y-96550771D02*
X65139410Y-96646009D01*
X65139410Y-96646009D02*
X65139410Y-97169819D01*
X64234649Y-97169819D02*
X64234649Y-96646009D01*
X64234649Y-96646009D02*
X64282268Y-96550771D01*
X64282268Y-96550771D02*
X64377506Y-96503152D01*
X64377506Y-96503152D02*
X64567982Y-96503152D01*
X64567982Y-96503152D02*
X64663220Y-96550771D01*
X64234649Y-97122200D02*
X64329887Y-97169819D01*
X64329887Y-97169819D02*
X64567982Y-97169819D01*
X64567982Y-97169819D02*
X64663220Y-97122200D01*
X64663220Y-97122200D02*
X64710839Y-97026961D01*
X64710839Y-97026961D02*
X64710839Y-96931723D01*
X64710839Y-96931723D02*
X64663220Y-96836485D01*
X64663220Y-96836485D02*
X64567982Y-96788866D01*
X64567982Y-96788866D02*
X64329887Y-96788866D01*
X64329887Y-96788866D02*
X64234649Y-96741247D01*
X63758458Y-97169819D02*
X63758458Y-96169819D01*
X63663220Y-96788866D02*
X63377506Y-97169819D01*
X63377506Y-96503152D02*
X63758458Y-96884104D01*
X62567982Y-97122200D02*
X62663220Y-97169819D01*
X62663220Y-97169819D02*
X62853696Y-97169819D01*
X62853696Y-97169819D02*
X62948934Y-97122200D01*
X62948934Y-97122200D02*
X62996553Y-97026961D01*
X62996553Y-97026961D02*
X62996553Y-96646009D01*
X62996553Y-96646009D02*
X62948934Y-96550771D01*
X62948934Y-96550771D02*
X62853696Y-96503152D01*
X62853696Y-96503152D02*
X62663220Y-96503152D01*
X62663220Y-96503152D02*
X62567982Y-96550771D01*
X62567982Y-96550771D02*
X62520363Y-96646009D01*
X62520363Y-96646009D02*
X62520363Y-96741247D01*
X62520363Y-96741247D02*
X62996553Y-96836485D01*
X62091791Y-97169819D02*
X62091791Y-96503152D01*
X62091791Y-96693628D02*
X62044172Y-96598390D01*
X62044172Y-96598390D02*
X61996553Y-96550771D01*
X61996553Y-96550771D02*
X61901315Y-96503152D01*
X61901315Y-96503152D02*
X61806077Y-96503152D01*
X60567981Y-97169819D02*
X60663219Y-97122200D01*
X60663219Y-97122200D02*
X60710838Y-97074580D01*
X60710838Y-97074580D02*
X60758457Y-96979342D01*
X60758457Y-96979342D02*
X60758457Y-96693628D01*
X60758457Y-96693628D02*
X60710838Y-96598390D01*
X60710838Y-96598390D02*
X60663219Y-96550771D01*
X60663219Y-96550771D02*
X60567981Y-96503152D01*
X60567981Y-96503152D02*
X60425124Y-96503152D01*
X60425124Y-96503152D02*
X60329886Y-96550771D01*
X60329886Y-96550771D02*
X60282267Y-96598390D01*
X60282267Y-96598390D02*
X60234648Y-96693628D01*
X60234648Y-96693628D02*
X60234648Y-96979342D01*
X60234648Y-96979342D02*
X60282267Y-97074580D01*
X60282267Y-97074580D02*
X60329886Y-97122200D01*
X60329886Y-97122200D02*
X60425124Y-97169819D01*
X60425124Y-97169819D02*
X60567981Y-97169819D01*
X59948933Y-96503152D02*
X59567981Y-96503152D01*
X59806076Y-97169819D02*
X59806076Y-96312676D01*
X59806076Y-96312676D02*
X59758457Y-96217438D01*
X59758457Y-96217438D02*
X59663219Y-96169819D01*
X59663219Y-96169819D02*
X59567981Y-96169819D01*
X58472742Y-97169819D02*
X58472742Y-96169819D01*
X58044171Y-97169819D02*
X58044171Y-96646009D01*
X58044171Y-96646009D02*
X58091790Y-96550771D01*
X58091790Y-96550771D02*
X58187028Y-96503152D01*
X58187028Y-96503152D02*
X58329885Y-96503152D01*
X58329885Y-96503152D02*
X58425123Y-96550771D01*
X58425123Y-96550771D02*
X58472742Y-96598390D01*
X57567980Y-97169819D02*
X57567980Y-96503152D01*
X57567980Y-96169819D02*
X57615599Y-96217438D01*
X57615599Y-96217438D02*
X57567980Y-96265057D01*
X57567980Y-96265057D02*
X57520361Y-96217438D01*
X57520361Y-96217438D02*
X57567980Y-96169819D01*
X57567980Y-96169819D02*
X57567980Y-96265057D01*
X57139409Y-97122200D02*
X57044171Y-97169819D01*
X57044171Y-97169819D02*
X56853695Y-97169819D01*
X56853695Y-97169819D02*
X56758457Y-97122200D01*
X56758457Y-97122200D02*
X56710838Y-97026961D01*
X56710838Y-97026961D02*
X56710838Y-96979342D01*
X56710838Y-96979342D02*
X56758457Y-96884104D01*
X56758457Y-96884104D02*
X56853695Y-96836485D01*
X56853695Y-96836485D02*
X56996552Y-96836485D01*
X56996552Y-96836485D02*
X57091790Y-96788866D01*
X57091790Y-96788866D02*
X57139409Y-96693628D01*
X57139409Y-96693628D02*
X57139409Y-96646009D01*
X57139409Y-96646009D02*
X57091790Y-96550771D01*
X57091790Y-96550771D02*
X56996552Y-96503152D01*
X56996552Y-96503152D02*
X56853695Y-96503152D01*
X56853695Y-96503152D02*
X56758457Y-96550771D01*
X56425123Y-96503152D02*
X56044171Y-96503152D01*
X56282266Y-96169819D02*
X56282266Y-97026961D01*
X56282266Y-97026961D02*
X56234647Y-97122200D01*
X56234647Y-97122200D02*
X56139409Y-97169819D01*
X56139409Y-97169819D02*
X56044171Y-97169819D01*
X55567980Y-97169819D02*
X55663218Y-97122200D01*
X55663218Y-97122200D02*
X55710837Y-97074580D01*
X55710837Y-97074580D02*
X55758456Y-96979342D01*
X55758456Y-96979342D02*
X55758456Y-96693628D01*
X55758456Y-96693628D02*
X55710837Y-96598390D01*
X55710837Y-96598390D02*
X55663218Y-96550771D01*
X55663218Y-96550771D02*
X55567980Y-96503152D01*
X55567980Y-96503152D02*
X55425123Y-96503152D01*
X55425123Y-96503152D02*
X55329885Y-96550771D01*
X55329885Y-96550771D02*
X55282266Y-96598390D01*
X55282266Y-96598390D02*
X55234647Y-96693628D01*
X55234647Y-96693628D02*
X55234647Y-96979342D01*
X55234647Y-96979342D02*
X55282266Y-97074580D01*
X55282266Y-97074580D02*
X55329885Y-97122200D01*
X55329885Y-97122200D02*
X55425123Y-97169819D01*
X55425123Y-97169819D02*
X55567980Y-97169819D01*
X54806075Y-97169819D02*
X54806075Y-96503152D01*
X54806075Y-96693628D02*
X54758456Y-96598390D01*
X54758456Y-96598390D02*
X54710837Y-96550771D01*
X54710837Y-96550771D02*
X54615599Y-96503152D01*
X54615599Y-96503152D02*
X54520361Y-96503152D01*
X54282265Y-96503152D02*
X54044170Y-97169819D01*
X53806075Y-96503152D02*
X54044170Y-97169819D01*
X54044170Y-97169819D02*
X54139408Y-97407914D01*
X54139408Y-97407914D02*
X54187027Y-97455533D01*
X54187027Y-97455533D02*
X54282265Y-97503152D01*
X53425122Y-97074580D02*
X53377503Y-97122200D01*
X53377503Y-97122200D02*
X53425122Y-97169819D01*
X53425122Y-97169819D02*
X53472741Y-97122200D01*
X53472741Y-97122200D02*
X53425122Y-97074580D01*
X53425122Y-97074580D02*
X53425122Y-97169819D01*
X52996551Y-96169819D02*
X52996551Y-96360295D01*
X52615599Y-96169819D02*
X52615599Y-96360295D01*
X73610839Y-73865057D02*
X73563220Y-73817438D01*
X73563220Y-73817438D02*
X73467982Y-73769819D01*
X73467982Y-73769819D02*
X73229887Y-73769819D01*
X73229887Y-73769819D02*
X73134649Y-73817438D01*
X73134649Y-73817438D02*
X73087030Y-73865057D01*
X73087030Y-73865057D02*
X73039411Y-73960295D01*
X73039411Y-73960295D02*
X73039411Y-74055533D01*
X73039411Y-74055533D02*
X73087030Y-74198390D01*
X73087030Y-74198390D02*
X73658458Y-74769819D01*
X73658458Y-74769819D02*
X73039411Y-74769819D01*
X72420363Y-73769819D02*
X72325125Y-73769819D01*
X72325125Y-73769819D02*
X72229887Y-73817438D01*
X72229887Y-73817438D02*
X72182268Y-73865057D01*
X72182268Y-73865057D02*
X72134649Y-73960295D01*
X72134649Y-73960295D02*
X72087030Y-74150771D01*
X72087030Y-74150771D02*
X72087030Y-74388866D01*
X72087030Y-74388866D02*
X72134649Y-74579342D01*
X72134649Y-74579342D02*
X72182268Y-74674580D01*
X72182268Y-74674580D02*
X72229887Y-74722200D01*
X72229887Y-74722200D02*
X72325125Y-74769819D01*
X72325125Y-74769819D02*
X72420363Y-74769819D01*
X72420363Y-74769819D02*
X72515601Y-74722200D01*
X72515601Y-74722200D02*
X72563220Y-74674580D01*
X72563220Y-74674580D02*
X72610839Y-74579342D01*
X72610839Y-74579342D02*
X72658458Y-74388866D01*
X72658458Y-74388866D02*
X72658458Y-74150771D01*
X72658458Y-74150771D02*
X72610839Y-73960295D01*
X72610839Y-73960295D02*
X72563220Y-73865057D01*
X72563220Y-73865057D02*
X72515601Y-73817438D01*
X72515601Y-73817438D02*
X72420363Y-73769819D01*
X71706077Y-73865057D02*
X71658458Y-73817438D01*
X71658458Y-73817438D02*
X71563220Y-73769819D01*
X71563220Y-73769819D02*
X71325125Y-73769819D01*
X71325125Y-73769819D02*
X71229887Y-73817438D01*
X71229887Y-73817438D02*
X71182268Y-73865057D01*
X71182268Y-73865057D02*
X71134649Y-73960295D01*
X71134649Y-73960295D02*
X71134649Y-74055533D01*
X71134649Y-74055533D02*
X71182268Y-74198390D01*
X71182268Y-74198390D02*
X71753696Y-74769819D01*
X71753696Y-74769819D02*
X71134649Y-74769819D01*
X70229887Y-73769819D02*
X70706077Y-73769819D01*
X70706077Y-73769819D02*
X70753696Y-74246009D01*
X70753696Y-74246009D02*
X70706077Y-74198390D01*
X70706077Y-74198390D02*
X70610839Y-74150771D01*
X70610839Y-74150771D02*
X70372744Y-74150771D01*
X70372744Y-74150771D02*
X70277506Y-74198390D01*
X70277506Y-74198390D02*
X70229887Y-74246009D01*
X70229887Y-74246009D02*
X70182268Y-74341247D01*
X70182268Y-74341247D02*
X70182268Y-74579342D01*
X70182268Y-74579342D02*
X70229887Y-74674580D01*
X70229887Y-74674580D02*
X70277506Y-74722200D01*
X70277506Y-74722200D02*
X70372744Y-74769819D01*
X70372744Y-74769819D02*
X70610839Y-74769819D01*
X70610839Y-74769819D02*
X70706077Y-74722200D01*
X70706077Y-74722200D02*
X70753696Y-74674580D01*
X68372744Y-74293628D02*
X68420363Y-74246009D01*
X68420363Y-74246009D02*
X68515601Y-74198390D01*
X68515601Y-74198390D02*
X68610839Y-74198390D01*
X68610839Y-74198390D02*
X68706077Y-74246009D01*
X68706077Y-74246009D02*
X68753696Y-74293628D01*
X68753696Y-74293628D02*
X68801315Y-74388866D01*
X68801315Y-74388866D02*
X68801315Y-74484104D01*
X68801315Y-74484104D02*
X68753696Y-74579342D01*
X68753696Y-74579342D02*
X68706077Y-74626961D01*
X68706077Y-74626961D02*
X68610839Y-74674580D01*
X68610839Y-74674580D02*
X68515601Y-74674580D01*
X68515601Y-74674580D02*
X68420363Y-74626961D01*
X68420363Y-74626961D02*
X68372744Y-74579342D01*
X68372744Y-74198390D02*
X68372744Y-74579342D01*
X68372744Y-74579342D02*
X68325125Y-74626961D01*
X68325125Y-74626961D02*
X68277506Y-74626961D01*
X68277506Y-74626961D02*
X68182267Y-74579342D01*
X68182267Y-74579342D02*
X68134648Y-74484104D01*
X68134648Y-74484104D02*
X68134648Y-74246009D01*
X68134648Y-74246009D02*
X68229887Y-74103152D01*
X68229887Y-74103152D02*
X68372744Y-74007914D01*
X68372744Y-74007914D02*
X68563220Y-73960295D01*
X68563220Y-73960295D02*
X68753696Y-74007914D01*
X68753696Y-74007914D02*
X68896553Y-74103152D01*
X68896553Y-74103152D02*
X68991791Y-74246009D01*
X68991791Y-74246009D02*
X69039410Y-74436485D01*
X69039410Y-74436485D02*
X68991791Y-74626961D01*
X68991791Y-74626961D02*
X68896553Y-74769819D01*
X68896553Y-74769819D02*
X68753696Y-74865057D01*
X68753696Y-74865057D02*
X68563220Y-74912676D01*
X68563220Y-74912676D02*
X68372744Y-74865057D01*
X68372744Y-74865057D02*
X68229887Y-74769819D01*
X67706077Y-74769819D02*
X67706077Y-73769819D01*
X67706077Y-73769819D02*
X67372744Y-74484104D01*
X67372744Y-74484104D02*
X67039411Y-73769819D01*
X67039411Y-73769819D02*
X67039411Y-74769819D01*
X66563220Y-74769819D02*
X66563220Y-74103152D01*
X66563220Y-73769819D02*
X66610839Y-73817438D01*
X66610839Y-73817438D02*
X66563220Y-73865057D01*
X66563220Y-73865057D02*
X66515601Y-73817438D01*
X66515601Y-73817438D02*
X66563220Y-73769819D01*
X66563220Y-73769819D02*
X66563220Y-73865057D01*
X66087030Y-74769819D02*
X66087030Y-74103152D01*
X66087030Y-74293628D02*
X66039411Y-74198390D01*
X66039411Y-74198390D02*
X65991792Y-74150771D01*
X65991792Y-74150771D02*
X65896554Y-74103152D01*
X65896554Y-74103152D02*
X65801316Y-74103152D01*
X65039411Y-74722200D02*
X65134649Y-74769819D01*
X65134649Y-74769819D02*
X65325125Y-74769819D01*
X65325125Y-74769819D02*
X65420363Y-74722200D01*
X65420363Y-74722200D02*
X65467982Y-74674580D01*
X65467982Y-74674580D02*
X65515601Y-74579342D01*
X65515601Y-74579342D02*
X65515601Y-74293628D01*
X65515601Y-74293628D02*
X65467982Y-74198390D01*
X65467982Y-74198390D02*
X65420363Y-74150771D01*
X65420363Y-74150771D02*
X65325125Y-74103152D01*
X65325125Y-74103152D02*
X65134649Y-74103152D01*
X65134649Y-74103152D02*
X65039411Y-74150771D01*
X64229887Y-74722200D02*
X64325125Y-74769819D01*
X64325125Y-74769819D02*
X64515601Y-74769819D01*
X64515601Y-74769819D02*
X64610839Y-74722200D01*
X64610839Y-74722200D02*
X64658458Y-74626961D01*
X64658458Y-74626961D02*
X64658458Y-74246009D01*
X64658458Y-74246009D02*
X64610839Y-74150771D01*
X64610839Y-74150771D02*
X64515601Y-74103152D01*
X64515601Y-74103152D02*
X64325125Y-74103152D01*
X64325125Y-74103152D02*
X64229887Y-74150771D01*
X64229887Y-74150771D02*
X64182268Y-74246009D01*
X64182268Y-74246009D02*
X64182268Y-74341247D01*
X64182268Y-74341247D02*
X64658458Y-74436485D01*
X63325125Y-74769819D02*
X63325125Y-74246009D01*
X63325125Y-74246009D02*
X63372744Y-74150771D01*
X63372744Y-74150771D02*
X63467982Y-74103152D01*
X63467982Y-74103152D02*
X63658458Y-74103152D01*
X63658458Y-74103152D02*
X63753696Y-74150771D01*
X63325125Y-74722200D02*
X63420363Y-74769819D01*
X63420363Y-74769819D02*
X63658458Y-74769819D01*
X63658458Y-74769819D02*
X63753696Y-74722200D01*
X63753696Y-74722200D02*
X63801315Y-74626961D01*
X63801315Y-74626961D02*
X63801315Y-74531723D01*
X63801315Y-74531723D02*
X63753696Y-74436485D01*
X63753696Y-74436485D02*
X63658458Y-74388866D01*
X63658458Y-74388866D02*
X63420363Y-74388866D01*
X63420363Y-74388866D02*
X63325125Y-74341247D01*
X62134648Y-74722200D02*
X61991791Y-74769819D01*
X61991791Y-74769819D02*
X61753696Y-74769819D01*
X61753696Y-74769819D02*
X61658458Y-74722200D01*
X61658458Y-74722200D02*
X61610839Y-74674580D01*
X61610839Y-74674580D02*
X61563220Y-74579342D01*
X61563220Y-74579342D02*
X61563220Y-74484104D01*
X61563220Y-74484104D02*
X61610839Y-74388866D01*
X61610839Y-74388866D02*
X61658458Y-74341247D01*
X61658458Y-74341247D02*
X61753696Y-74293628D01*
X61753696Y-74293628D02*
X61944172Y-74246009D01*
X61944172Y-74246009D02*
X62039410Y-74198390D01*
X62039410Y-74198390D02*
X62087029Y-74150771D01*
X62087029Y-74150771D02*
X62134648Y-74055533D01*
X62134648Y-74055533D02*
X62134648Y-73960295D01*
X62134648Y-73960295D02*
X62087029Y-73865057D01*
X62087029Y-73865057D02*
X62039410Y-73817438D01*
X62039410Y-73817438D02*
X61944172Y-73769819D01*
X61944172Y-73769819D02*
X61706077Y-73769819D01*
X61706077Y-73769819D02*
X61563220Y-73817438D01*
X60753696Y-74722200D02*
X60848934Y-74769819D01*
X60848934Y-74769819D02*
X61039410Y-74769819D01*
X61039410Y-74769819D02*
X61134648Y-74722200D01*
X61134648Y-74722200D02*
X61182267Y-74626961D01*
X61182267Y-74626961D02*
X61182267Y-74246009D01*
X61182267Y-74246009D02*
X61134648Y-74150771D01*
X61134648Y-74150771D02*
X61039410Y-74103152D01*
X61039410Y-74103152D02*
X60848934Y-74103152D01*
X60848934Y-74103152D02*
X60753696Y-74150771D01*
X60753696Y-74150771D02*
X60706077Y-74246009D01*
X60706077Y-74246009D02*
X60706077Y-74341247D01*
X60706077Y-74341247D02*
X61182267Y-74436485D01*
X60277505Y-74769819D02*
X60277505Y-74103152D01*
X60277505Y-74293628D02*
X60229886Y-74198390D01*
X60229886Y-74198390D02*
X60182267Y-74150771D01*
X60182267Y-74150771D02*
X60087029Y-74103152D01*
X60087029Y-74103152D02*
X59991791Y-74103152D01*
X59658457Y-74769819D02*
X59658457Y-73769819D01*
X59658457Y-74150771D02*
X59563219Y-74103152D01*
X59563219Y-74103152D02*
X59372743Y-74103152D01*
X59372743Y-74103152D02*
X59277505Y-74150771D01*
X59277505Y-74150771D02*
X59229886Y-74198390D01*
X59229886Y-74198390D02*
X59182267Y-74293628D01*
X59182267Y-74293628D02*
X59182267Y-74579342D01*
X59182267Y-74579342D02*
X59229886Y-74674580D01*
X59229886Y-74674580D02*
X59277505Y-74722200D01*
X59277505Y-74722200D02*
X59372743Y-74769819D01*
X59372743Y-74769819D02*
X59563219Y-74769819D01*
X59563219Y-74769819D02*
X59658457Y-74722200D01*
X58325124Y-74769819D02*
X58325124Y-74246009D01*
X58325124Y-74246009D02*
X58372743Y-74150771D01*
X58372743Y-74150771D02*
X58467981Y-74103152D01*
X58467981Y-74103152D02*
X58658457Y-74103152D01*
X58658457Y-74103152D02*
X58753695Y-74150771D01*
X58325124Y-74722200D02*
X58420362Y-74769819D01*
X58420362Y-74769819D02*
X58658457Y-74769819D01*
X58658457Y-74769819D02*
X58753695Y-74722200D01*
X58753695Y-74722200D02*
X58801314Y-74626961D01*
X58801314Y-74626961D02*
X58801314Y-74531723D01*
X58801314Y-74531723D02*
X58753695Y-74436485D01*
X58753695Y-74436485D02*
X58658457Y-74388866D01*
X58658457Y-74388866D02*
X58420362Y-74388866D01*
X58420362Y-74388866D02*
X58325124Y-74341247D01*
X57848933Y-74103152D02*
X57848933Y-74769819D01*
X57848933Y-74198390D02*
X57801314Y-74150771D01*
X57801314Y-74150771D02*
X57706076Y-74103152D01*
X57706076Y-74103152D02*
X57563219Y-74103152D01*
X57563219Y-74103152D02*
X57467981Y-74150771D01*
X57467981Y-74150771D02*
X57420362Y-74246009D01*
X57420362Y-74246009D02*
X57420362Y-74769819D01*
X56563219Y-74722200D02*
X56658457Y-74769819D01*
X56658457Y-74769819D02*
X56848933Y-74769819D01*
X56848933Y-74769819D02*
X56944171Y-74722200D01*
X56944171Y-74722200D02*
X56991790Y-74626961D01*
X56991790Y-74626961D02*
X56991790Y-74246009D01*
X56991790Y-74246009D02*
X56944171Y-74150771D01*
X56944171Y-74150771D02*
X56848933Y-74103152D01*
X56848933Y-74103152D02*
X56658457Y-74103152D01*
X56658457Y-74103152D02*
X56563219Y-74150771D01*
X56563219Y-74150771D02*
X56515600Y-74246009D01*
X56515600Y-74246009D02*
X56515600Y-74341247D01*
X56515600Y-74341247D02*
X56991790Y-74436485D01*
X56134647Y-74722200D02*
X56039409Y-74769819D01*
X56039409Y-74769819D02*
X55848933Y-74769819D01*
X55848933Y-74769819D02*
X55753695Y-74722200D01*
X55753695Y-74722200D02*
X55706076Y-74626961D01*
X55706076Y-74626961D02*
X55706076Y-74579342D01*
X55706076Y-74579342D02*
X55753695Y-74484104D01*
X55753695Y-74484104D02*
X55848933Y-74436485D01*
X55848933Y-74436485D02*
X55991790Y-74436485D01*
X55991790Y-74436485D02*
X56087028Y-74388866D01*
X56087028Y-74388866D02*
X56134647Y-74293628D01*
X56134647Y-74293628D02*
X56134647Y-74246009D01*
X56134647Y-74246009D02*
X56087028Y-74150771D01*
X56087028Y-74150771D02*
X55991790Y-74103152D01*
X55991790Y-74103152D02*
X55848933Y-74103152D01*
X55848933Y-74103152D02*
X55753695Y-74150771D01*
X54848933Y-74722200D02*
X54944171Y-74769819D01*
X54944171Y-74769819D02*
X55134647Y-74769819D01*
X55134647Y-74769819D02*
X55229885Y-74722200D01*
X55229885Y-74722200D02*
X55277504Y-74674580D01*
X55277504Y-74674580D02*
X55325123Y-74579342D01*
X55325123Y-74579342D02*
X55325123Y-74293628D01*
X55325123Y-74293628D02*
X55277504Y-74198390D01*
X55277504Y-74198390D02*
X55229885Y-74150771D01*
X55229885Y-74150771D02*
X55134647Y-74103152D01*
X55134647Y-74103152D02*
X54944171Y-74103152D01*
X54944171Y-74103152D02*
X54848933Y-74150771D01*
X53991790Y-74103152D02*
X53991790Y-74769819D01*
X54420361Y-74103152D02*
X54420361Y-74626961D01*
X54420361Y-74626961D02*
X54372742Y-74722200D01*
X54372742Y-74722200D02*
X54277504Y-74769819D01*
X54277504Y-74769819D02*
X54134647Y-74769819D01*
X54134647Y-74769819D02*
X54039409Y-74722200D01*
X54039409Y-74722200D02*
X53991790Y-74674580D01*
M02*
